<?xml version="1.0" encoding="UTF-8"?>
<svg id="Calque_2" data-name="Calque 2" xmlns="http://www.w3.org/2000/svg" viewBox="0 0 95.33 82.38">
  <defs>
    <style>
      .cls-1 {
        fill: #fff;
      }

      .cls-2 {
        fill: #3fa9f5;
      }

      .cls-3 {
        fill: #ff1d25;
      }

      .cls-4 {
        fill: #fce500;
      }
    </style>
  </defs>
  <g id="Calque_1-2" data-name="Calque 1">
    <g>
      <path class="cls-2" d="m51.35,59.46l-3.83,14.19,6.71-1.64-2.88,10.38,10.43-17.21-7.28,1.09,7.81-12.32s2.26-23.33,1.43-23.39c-.83-.07-34.54,10.39-34.54,10.39l15.11,13.01,7.03,5.51Z"/>
      <g>
        <path class="cls-1" d="m83.32,28.92c-1.62-1.62-3.68-2.53-5.8-2.73-.54-1.88-1.55-3.66-3.04-5.14-4.68-4.68-12.27-4.68-16.95,0-.23.23-.44.47-.65.71-1.56-1.97-3.98-3.24-6.69-3.24-3.62,0-6.71,2.26-7.96,5.44-3.6-1.16-7.7-.31-10.56,2.55-1.39,1.39-2.31,3.08-2.75,4.87-.61-.3-1.3-.46-2.03-.46-2.59,0-4.69,2.1-4.69,4.69,0,1.02.33,1.96.88,2.73-3.86,1.52-6.6,5.28-6.6,9.69,0,5.37,4.07,9.79,9.3,10.35.18.87.6,1.7,1.28,2.37,1.83,1.83,4.8,1.83,6.63,0,.28-.28.51-.58.7-.9.36.55.78,1.07,1.27,1.55,3.87,3.87,10.14,3.87,14.01,0,.26-.26.5-.53.72-.8,2.16,1.06,4.84.69,6.64-1.11.48-.48.86-1.02,1.13-1.6,4.44,2.07,9.88,1.27,13.54-2.39,1.58-1.58,2.63-3.5,3.14-5.53,1.6.72,3.54.43,4.86-.88,1.32-1.32,1.61-3.28.87-4.88,1-.46,1.93-1.09,2.75-1.91,3.69-3.69,3.69-9.68,0-13.37Z"/>
        <path d="m82.08,41.57c.88-.78,1.54-1.69,1.98-2.61.22-.46.39-.92.52-1.38.13-.46.21-.9.25-1.33,0-.05.01-.11.02-.16v-.08s.01-.08.01-.08c0-.11.01-.21.02-.31,0-.21,0-.41,0-.61,0-.2-.03-.39-.04-.58-.01-.09-.02-.19-.04-.28,0-.05-.01-.09-.02-.14,0-.04-.02-.09-.02-.13-.12-.7-.31-1.32-.52-1.83-.21-.52-.43-.94-.64-1.29-.2-.35-.38-.62-.52-.82-.06-.11-.12-.19-.17-.26-.04-.07-.07-.13-.09-.17-.03-.08,0-.11.07-.08.04.02.1.05.16.09.03.02.07.05.11.08.02.02.04.03.07.05.02.02.04.04.07.06.05.04.1.08.15.13.05.05.11.1.17.16.06.06.12.12.18.19.03.03.07.07.1.1.03.04.06.08.1.11.27.31.56.71.85,1.21.29.5.57,1.11.78,1.83.21.72.36,1.55.37,2.47,0,.46-.02.94-.1,1.44-.08.5-.19,1.01-.36,1.53-.17.52-.39,1.05-.67,1.57-.28.52-.63,1.03-1.03,1.52-.21.24-.42.48-.66.72-.23.23-.48.45-.75.67-.13.11-.27.21-.41.31-.07.05-.14.1-.21.15l-.09.06s-.06.04-.09.06c-.12.08-.24.15-.37.22-.06.04-.12.07-.19.1l-.09.05-.05.02h-.01s-.01,0,0,.01v.03c.04.07.08.15.11.22.03.08.06.15.08.23.03.08.05.15.07.23,0,.02.01.04.02.06v.06s.02.06.02.06l.02.08c.08.42.09.86.05,1.3-.04.44-.15.88-.33,1.31-.17.43-.42.83-.72,1.2-.6.74-1.46,1.31-2.45,1.57-.06.01-.12.03-.19.04-.06.01-.12.03-.19.04-.06,0-.13.02-.19.03-.06.01-.13.02-.19.02-.06,0-.13.01-.19.02-.03,0-.06,0-.1,0h-.1c-.13,0-.26,0-.39,0-.06,0-.13,0-.19-.01h-.02s-.01,0-.01,0h-.03s-.06-.01-.06-.01l-.12-.02-.12-.02c-.08-.01-.15-.04-.23-.06-.08-.02-.15-.05-.22-.08h-.03s0-.02,0-.02c0,0,0,0,0,0v.02s-.02.08-.02.08c-.01.05-.02.1-.04.15-.03.1-.05.2-.08.3-.03.1-.06.2-.09.3l-.03.08-.04.12c-.03.08-.06.16-.09.24-.25.63-.56,1.25-.92,1.84-.18.3-.38.59-.59.88-.21.29-.43.57-.67.84-.47.55-1,1.06-1.58,1.53-.58.47-1.21.9-1.89,1.27-.17.1-.34.18-.52.27-.09.05-.18.08-.26.12-.09.04-.18.08-.27.12-.36.15-.73.3-1.11.42-.38.13-.77.23-1.16.32-.39.08-.79.16-1.2.21-.41.06-.82.08-1.23.1-.1,0-.21,0-.31,0h-.16s-.16,0-.16,0c-.1,0-.21,0-.31,0-.1,0-.21-.01-.31-.02-.19,0-.38-.03-.57-.05-.19-.02-.38-.05-.57-.07l-.28-.05c-.09-.02-.19-.03-.28-.05-.19-.04-.38-.08-.56-.13l-.28-.07-.28-.08-.14-.04-.07-.02h-.04s-.14-.06-.14-.06l-.07-.02-.05-.02-.11-.04s-.07-.03-.1-.04l-.05-.02h-.03s0-.01,0-.01c0,0,0,0,0,0h0c-.07.16-.14.3-.24.43,0,0-.05.06-.08.1-.03.04-.07.09-.1.13-.07.08-.14.17-.21.25-.07.08-.15.16-.23.24l-.24.23-.12.11-.13.1-.26.21s-.09.07-.13.1l-.14.09-.14.09-.07.05s-.05.03-.07.04c-.19.11-.38.23-.59.32-.1.05-.2.1-.3.14l-.31.12c-.84.31-1.74.44-2.64.4h-.08s-.06,0-.08,0l-.17-.02-.17-.02c-.06,0-.11-.01-.17-.02-.22-.04-.45-.07-.67-.13l-.23-.06-.09-.03s-.06-.02-.09-.03l-.09-.04c-.04.05-.08.11-.12.15l-.06.07-.03.04-.04.04-.06.06c-.3.3-.62.59-.95.86-.67.53-1.4,1-2.19,1.37-.78.37-1.61.64-2.47.82-.85.17-1.73.25-2.61.22-.88-.03-1.75-.17-2.61-.4l-.08-.02-.08-.02-.16-.05c-.11-.03-.21-.06-.32-.1l-.31-.11-.16-.06-.15-.06-.31-.13c-.1-.04-.2-.1-.3-.14l-.15-.07c-.05-.02-.1-.05-.15-.08l-.29-.16c-.78-.43-1.5-.97-2.16-1.58-.08-.08-.16-.15-.24-.23l-.12-.12h-.01s0-.02,0-.02c0,0,0,0,0,0,0,0,0,0,0,0h-.01s-.06-.07-.09-.1c-.03-.03-.05-.06-.08-.09l-.04-.05-.02-.02s0,0,0,0h0c-.05.1-.11.17-.18.24h-.01s0,.01,0,.01h0s.01,0,.01,0h0s0,0,0,0h-.01s-.02.03-.02.03l-.17.14c-.12.09-.24.17-.36.25-.25.16-.51.3-.78.42-1.08.49-2.31.64-3.48.44-.59-.1-1.16-.29-1.7-.56-.53-.27-1.03-.62-1.46-1.03-.43-.41-.81-.89-1.1-1.41-.04-.07-.07-.13-.11-.2-.04-.07-.07-.13-.1-.2-.03-.07-.06-.14-.09-.21v-.03s-.02-.01-.02-.01h0s.01.02,0,0h0s0,0,0,0h0s-.02-.07-.03-.1c0,0,0,0-.01,0h-.02s-.03,0-.03,0c0,0-.02,0-.04,0h-.04s-.02,0-.02,0h0s-.03,0-.03,0h-.06s-.24-.07-.24-.07c-.08-.02-.16-.03-.24-.06l-.24-.06c-.64-.17-1.27-.4-1.87-.68-1.21-.56-2.32-1.32-3.27-2.25-.95-.93-1.75-2.01-2.35-3.2-.6-1.19-.99-2.49-1.16-3.8-.08-.66-.12-1.33-.09-1.99.03-.66.11-1.33.24-1.98.27-1.3.76-2.56,1.44-3.69.68-1.14,1.55-2.16,2.56-3,.5-.42,1.04-.81,1.61-1.14l.08-.05h.01s.01-.02.01-.02h.01s0-.01,0-.01c0,0,0,0,0,0,0,0-.01-.01-.02-.02h0s0-.02,0-.02h0s0,0,0,0h0s0-.01,0-.01c-.03-.08-.05-.16-.08-.25-.19-.67-.26-1.36-.23-2.04.02-.34.07-.68.14-1.02.02-.08.04-.17.06-.25l.07-.25.08-.24c.03-.08.06-.16.09-.24.13-.32.28-.63.46-.92.18-.29.38-.57.6-.83.44-.52.97-.96,1.56-1.31.29-.18.6-.32.92-.45.32-.12.64-.23.98-.3.33-.07.67-.12,1.01-.13.17,0,.34-.01.51,0,.17,0,.34.02.5.03.08,0,.17.02.25.03h.03s0,0,0,0h0s0,0,0,0h0s0,0,0,0h0s0,0,0,0h0s0,0,0,0h0s0,0,0,0l.02-.04.03-.07.06-.15.07-.15c.04-.1.09-.2.13-.29.37-.77.81-1.5,1.33-2.16.26-.34.53-.65.82-.96.29-.31.6-.59.91-.86.64-.54,1.33-1.02,2.06-1.41,1.46-.79,3.07-1.26,4.69-1.4.4-.04.81-.05,1.21-.04.4,0,.81.03,1.2.08l.3.04c.1.01.2.03.3.05l.15.02.15.03h.04s0,0,0,0c0,0,0,0,0,0h0s0,0,0,0h0s0,0,0,0l.02-.04h0s.05-.09.05-.09l.09-.15c.06-.1.13-.2.19-.3.06-.1.13-.19.2-.29.03-.05.07-.1.1-.14l.11-.14c.57-.74,1.23-1.4,1.97-1.96.74-.55,1.54-1,2.39-1.33.84-.33,1.73-.54,2.61-.64.44-.05.88-.07,1.32-.05.11,0,.22,0,.33.01.05,0,.11,0,.16.01h.16c.11.02.22.03.33.05.11.02.22.03.32.05.86.13,1.7.37,2.48.71.78.34,1.51.78,2.17,1.29.08.06.17.13.24.19.08.07.16.14.24.2l.03.02s0,0-.01-.01c0,0,0,0,0,0h0s0,.01,0,.01c0,.01.02.02.03.04.01,0,.02-.02.04-.03h.01s0-.01,0-.01l.06-.05.13-.11c.17-.14.34-.29.51-.42.7-.55,1.45-1.01,2.21-1.4,1.54-.77,3.17-1.22,4.77-1.37,1.6-.15,3.16,0,4.59.36.72.19,1.4.43,2.05.72.08.04.16.07.24.11l.12.05s.08.04.12.06c.16.08.31.16.47.24.3.17.6.34.88.53.83.54,1.56,1.15,2.19,1.78.32.32.61.64.88.97.27.33.52.67.74,1,.11.17.22.34.32.5.05.08.1.17.15.25.02.04.05.08.07.13.02.04.05.08.07.13.18.33.34.67.49,1,.07.17.14.33.2.49.03.08.06.16.09.24.01.04.03.08.04.12l.02.05s0,.01,0,.02c.02.08.04.16.05.24.04,0,.07.02.11.03.04.01.07.02.11.03h.01s0,0,0,0h0s.02,0,.04,0h.05c.07.03.14.04.21.06.13.04.27.07.4.11.52.16.98.34,1.4.54.1.05.2.1.3.15.1.05.19.1.28.15.05.03.09.05.14.07.04.03.09.05.13.08.08.05.17.1.25.15.08.05.15.1.23.15.07.05.15.1.21.15.07.05.13.1.2.15.06.05.12.09.18.14.11.1.22.18.32.27.09.09.18.17.26.25.08.08.15.15.21.22.06.07.12.13.16.19.18.23.24.35.2.38-.09.06-.55-.34-1.54-.92-.49-.29-1.13-.6-1.91-.88-.39-.13-.83-.26-1.29-.35-.12-.02-.24-.05-.36-.07-.06,0-.12-.02-.18-.03-.03,0-.06,0-.09-.01-.03,0-.06,0-.08-.01-.11-.01-.23-.02-.35-.04-.12,0-.25-.02-.37-.02-.06-.13-.1-.28-.16-.43-.03-.07-.06-.15-.09-.23-.03-.08-.07-.16-.1-.24-.15-.33-.31-.67-.5-1.01-.19-.34-.4-.68-.63-1.02-.23-.34-.49-.68-.77-1.01-.28-.33-.59-.66-.92-.97-.08-.08-.17-.15-.26-.23-.09-.08-.17-.16-.26-.23-.09-.07-.18-.15-.28-.22-.05-.04-.09-.07-.14-.11-.05-.04-.1-.07-.15-.11-.1-.07-.2-.14-.3-.21l-.07-.05-.08-.05c-.05-.03-.1-.07-.16-.1-.1-.07-.21-.14-.31-.2-.11-.06-.22-.13-.33-.19-.06-.03-.11-.07-.17-.09-.06-.03-.11-.06-.17-.09-.11-.06-.23-.12-.34-.18-.24-.11-.47-.22-.72-.31-.49-.2-1-.36-1.54-.5-.13-.03-.27-.06-.4-.1-.14-.03-.27-.05-.41-.08-.14-.03-.28-.04-.42-.07-.14-.02-.28-.04-.42-.05-.57-.06-1.16-.07-1.75-.05-.3,0-.6.04-.9.07-.15.02-.3.04-.45.07-.08,0-.15.03-.23.04-.08.01-.15.03-.23.04-.6.12-1.21.3-1.8.52-.6.23-1.18.51-1.75.84-.57.33-1.11.72-1.63,1.16-.13.11-.25.23-.38.34l-.02.02h-.01s-.02.03-.02.03l-.07.07-.13.13c-.09.09-.18.18-.26.27-.04.05-.09.09-.13.14l-.13.15c-.09.1-.17.2-.26.3-.09.1-.17.2-.26.3l-.13.15-.06.08-.03.04-.02.02s-.01.02-.02.01c-.12-.13-.23-.27-.35-.4-.06-.07-.12-.13-.18-.2-.06-.07-.12-.14-.18-.2-.06-.07-.12-.14-.19-.2-.06-.06-.13-.13-.19-.19-.06-.06-.13-.13-.19-.19-.03-.03-.06-.07-.1-.1l-.05-.05-.06-.05c-.36-.31-.76-.58-1.18-.82-.42-.24-.87-.44-1.34-.6-.47-.16-.95-.27-1.45-.34-.99-.14-2.04-.08-3.04.18-1,.26-1.96.74-2.8,1.4-.54.43-1.03.93-1.44,1.49l-.08.11s-.05.07-.07.11c-.05.07-.1.14-.14.22-.05.07-.09.15-.14.22l-.07.11-.03.06-.05.09-.1.2c-.03.07-.07.13-.1.2-.06.15-.13.3-.19.44-.06.15-.12.3-.19.45-.06.15-.12.3-.18.45-.52-.15-1.07-.31-1.62-.45-.07-.02-.14-.03-.2-.04l-.17-.03c-.08-.01-.16-.03-.23-.04-.16-.02-.31-.04-.47-.06-.32-.03-.63-.04-.95-.04-.32,0-.64.02-.95.05-1.27.13-2.51.53-3.63,1.17-1.12.63-2.1,1.51-2.88,2.55-.39.52-.72,1.08-.99,1.66-.07.15-.13.3-.19.45l-.06.16c-.03.07-.05.15-.08.22-.05.15-.1.3-.15.45-.09.32-.17.63-.25.95l-.12.48-.06.24-.02.06v.03s-.01.02-.02.02l-.04.09c-.42-.19-.89-.4-1.33-.59-.11-.05-.22-.09-.33-.14-.05-.02-.11-.04-.16-.05-.03,0-.05-.02-.08-.03l-.08-.02c-.05-.01-.11-.03-.16-.04h-.08s-.05-.02-.05-.02c-.05,0-.09-.01-.14-.02-.09,0-.19-.01-.28-.01-.09,0-.19,0-.28,0-.19.01-.37.04-.55.08-.18.04-.36.1-.53.17-.17.07-.34.16-.5.25-.32.2-.6.44-.84.73-.48.57-.75,1.3-.78,2.04-.01.37.03.74.14,1.1l.04.13.06.16c.02.05.04.11.06.16l.09.16.04.08.02.04s.02.03.03.04l.21.32c.29.44.61.89.89,1.3l-.07.04-.04.02s-.03.01-.04.02l-.18.08-.37.16-.75.32-.37.16-.19.08-.09.04s-.06.03-.09.05l-.34.18-.17.09s-.02,0-.02.01h-.01s-.02.02-.02.02l-.04.02c-.43.26-.84.56-1.22.89-.77.66-1.42,1.44-1.93,2.31-.51.87-.86,1.82-1.06,2.8-.1.49-.15.99-.16,1.49,0,.13,0,.25,0,.38v.38s.04.37.04.37c.01.12.03.25.05.37.14.99.45,1.95.9,2.84.46.89,1.06,1.69,1.78,2.38.72.68,1.55,1.25,2.45,1.66.45.2.91.37,1.39.5l.18.05c.06.01.12.03.18.04l.18.04h.04s.01.01.01.01h.03s.05.01.05.01l.2.03.4.06.2.03.21.03.42.05.21.03c.07,0,.14.02.21.03l.16.69.08.35.04.17v.04s.02.04.02.04l.03.08.05.16c.02.05.05.12.05.12.01.04.03.07.05.11.02.04.03.07.05.1.02.03.04.07.06.1.15.27.35.52.57.73.45.43,1.02.71,1.63.81.61.1,1.24.02,1.8-.23.14-.06.27-.13.4-.22l.05-.03.05-.03s.06-.04.09-.07l.09-.07h.01s0-.01,0-.01h0s0,0,0,0l.04-.03s0,0,.01,0h0s.02-.02.02-.02l.03-.03.12-.12.12-.12.03-.03s.02-.02.03-.04l.06-.08.22-.31c.14-.23.29-.47.44-.71.29-.48.59-.96.88-1.45l.17.24.18.26.36.54c.24.36.49.72.73,1.08.24.36.49.67.76.96l.1.11.07.07.09.09.18.17c.24.23.5.44.77.64.07.05.14.1.21.14.07.05.14.1.21.14l.21.13s.07.04.11.07l.11.06c1.16.66,2.47,1.01,3.78,1.06.66.02,1.31-.03,1.95-.16.64-.13,1.25-.33,1.84-.6.58-.27,1.13-.61,1.63-1,.25-.19.49-.41.72-.63.02-.02.2-.2.32-.33.13-.14.25-.29.37-.44.24-.3.49-.6.73-.91.18.08.36.16.54.24l.27.12.27.12c.18.08.37.15.55.23.05.02.09.03.14.05h.02s0,0,0,0c0,0-.02,0,.04,0h.01s.01,0,.01,0h.03s.1.03.1.03l.1.03s.07.01.1.02l.2.04c.07.01.14.01.21.02.07,0,.14.02.21.02.55.03,1.11-.04,1.62-.23l.19-.07.18-.08.09-.04s.06-.03.09-.05l.18-.1s.06-.04.09-.05l.08-.06.08-.06s.06-.04.08-.06l.16-.12s.05-.04.08-.06l.07-.07.15-.14s.09-.1.14-.14c.05-.05.09-.1.13-.15.02-.03.04-.05.06-.08l.03-.04h0s0-.01,0-.01l.02-.03.04-.05.08-.11.08-.12c.05-.08.1-.16.14-.25.09-.17.18-.35.27-.53.18-.36.35-.71.53-1.07.45.2.89.39,1.33.59l.34.15.08.04.04.02h.04s.15.07.15.07c.2.07.39.15.59.22.39.13.79.23,1.18.32.8.16,1.61.24,2.41.21,1.6-.04,3.15-.46,4.51-1.17.34-.17.67-.37.98-.58.08-.05.16-.11.23-.16.08-.05.15-.11.23-.17.15-.11.3-.23.44-.35.07-.06.14-.12.21-.19l.11-.09.1-.1c.07-.06.14-.13.2-.19.07-.07.13-.13.2-.2.26-.27.5-.55.72-.84.22-.29.43-.59.62-.89.19-.31.36-.62.52-.94.08-.16.15-.32.22-.49l.05-.12s.02-.04.02-.06l.04-.09c.03-.09.07-.17.1-.27.03-.09.07-.19.09-.28.23-.77.44-1.58.65-2.31.47.19.93.38,1.4.57.12.05.23.1.35.14.06.03.11.04.17.05l.17.05c.11.03.22.06.33.09h.01s0,0,0,0h0s.02,0,.02,0h.03s.07.01.07.01c.04,0,.09.01.13.01h.11s.07,0,.11,0h.11c.07,0,.15-.02.22-.03h.06s.04-.01.05-.02l.11-.02c.58-.12,1.09-.43,1.48-.85.39-.42.63-.94.72-1.49.04-.27.05-.55.01-.82l-.02-.16c-.02-.09-.04-.19-.08-.28-.07-.19-.14-.38-.21-.56-.15-.37-.3-.74-.45-1.1.03-.01.05-.03.08-.04l.08-.04.17-.08c.11-.05.22-.1.34-.16.22-.1.45-.21.67-.31l.17-.08.16-.08c.11-.05.21-.11.31-.17l.14-.08.07-.04.03-.02s.09-.06.13-.08c.36-.23.69-.48,1-.75Z"/>
      </g>
      <g>
        <g>
          <path class="cls-4" d="m71.63,23.24l16.18-14.17-16.18,14.17Z"/>
          <path d="m87.82,9.07c-.45-.52-1.13-.67-1.51-.34l-14.68,14.51,16.32-12.63c.38-.33.32-1.02-.13-1.54Z"/>
        </g>
        <g>
          <path class="cls-4" d="m67.78,20.66l6.25-15.14-6.25,15.14Z"/>
          <path d="m74.03,5.52c-.64-.26-1.27-.19-1.42.17l-4.83,14.97,7.13-14.02c.15-.35-.25-.85-.89-1.12Z"/>
        </g>
        <g>
          <path class="cls-4" d="m71.47,19.79L84.65.25l-13.18,19.53Z"/>
          <path d="m84.65.25c-.57-.38-1.28-.33-1.59.13l-11.59,19.4L85.12,1.78c.31-.46.1-1.14-.47-1.52Z"/>
        </g>
      </g>
      <g>
        <g>
          <path class="cls-4" d="m21.75,50.93l-13.46,3.73,13.46-3.73Z"/>
          <path d="m8.3,54.66c.18.66.59,1.13.9,1.04l12.55-4.78-13.22,2.38c-.31.09-.42.7-.24,1.36Z"/>
        </g>
        <g>
          <path class="cls-4" d="m22.45,45.06l-17.09-5.04,17.09,5.04Z"/>
          <path d="m5.36,40.01c-.19.66-.03,1.29.37,1.41l16.72,3.64-16.02-6.02c-.4-.12-.88.32-1.08.98Z"/>
        </g>
        <g>
          <path class="cls-4" d="m20.86,48.12L0,47.96l20.86.16Z"/>
          <path d="m0,47.96c0,.69.39,1.25.87,1.25l19.99-1.09-19.97-1.39c-.49,0-.89.55-.89,1.24Z"/>
        </g>
      </g>
      <g>
        <path class="cls-4" d="m77.37,46.74l17.83,6.83-17.83-6.83Z"/>
        <path d="m95.21,53.58c.25-.64.11-1.29-.31-1.45l-17.52-5.38,16.63,7.71c.42.16.95-.23,1.2-.87Z"/>
      </g>
      <g>
        <path class="cls-4" d="m71.98,50.93l14.15,12.83-14.15-12.83Z"/>
        <path d="m86.13,63.76c.46-.51.57-1.17.24-1.47l-14.38-11.36,12.71,13.21c.33.3.97.13,1.44-.38Z"/>
      </g>
    </g>
    <g>
      <path class="cls-3" d="m46.38,24.03l.16-8.22c-4.7,2.45-9.04,5.39-13.02,8.83-5.43,4.66-8.58,9.03-9.46,13.1-.13.79-.18,1.38-.16,1.78.13,4.85,2.94,8.33,8.44,10.45,3.71,1.39,8.42,2.08,14.14,2.08l-.05-7.24c-3.51.18-6.66-.19-9.46-1.12-3.97-1.35-5.6-3.68-4.91-6.96.57-2.58,2.57-5.2,6-7.87,1.28-.99,2.61-1.88,3.99-2.67s2.82-1.51,4.32-2.15Z"/>
      <path d="m41.53,35.3c1.15-.88,2.52-1.75,4.1-2.62s3.37-1.72,5.36-2.56l.27-12.77-2.71-4.5.05-.38c-3.29,1.7-6.29,3.44-9,5.22s-5.13,3.59-7.25,5.41h.05c-2.91,2.52-5.2,5-6.88,7.44s-2.79,4.84-3.32,7.2c-.11.57-.2,1.06-.27,1.48s-.09.79-.05,1.1h.05c.04,1.5.29,2.87.77,4.11s1.14,2.38,2,3.43l1.81,2.99c.77,1.3,1.79,2.43,3.07,3.4s2.83,1.8,4.66,2.49c3.89,1.46,9.52,2.19,16.89,2.19l-.05-11.73-2.66-4.5-.05-.33c-.15.02-.36.04-.64.05s-.58.03-.9.04-.62.02-.9.03-.49.02-.62.02c-1.39,0-2.7-.09-3.92-.26s-2.36-.44-3.4-.8c-.24-.07-.45-.16-.63-.24s-.37-.16-.58-.23c.26-.88.78-1.78,1.58-2.7s1.86-1.91,3.19-2.97Zm-9.46,1.43c-.69,3.29.94,5.61,4.91,6.96,2.8.93,5.95,1.31,9.46,1.12l.05,7.24c-5.72,0-10.43-.69-14.14-2.08-5.5-2.12-8.32-5.6-8.44-10.45-.02-.4.04-1,.16-1.78.88-4.08,4.03-8.44,9.46-13.1,3.98-3.44,8.32-6.38,13.02-8.83l-.16,8.22c-1.5.64-2.94,1.36-4.32,2.15s-2.71,1.69-3.99,2.67c-3.44,2.67-5.44,5.29-6,7.87Z"/>
    </g>
    <g>
      <path class="cls-3" d="m73.92,30.08l.17-8.45c-4.82,2.52-9.28,5.54-13.38,9.07-5.58,4.79-8.81,9.27-9.72,13.46-.13.81-.19,1.42-.17,1.83.13,4.98,3.02,8.55,8.67,10.73,3.81,1.43,8.65,2.14,14.53,2.14l-.06-7.43c-3.6.19-6.84-.2-9.72-1.15-4.07-1.39-5.75-3.78-5.04-7.15.58-2.65,2.64-5.34,6.17-8.08,1.31-1.01,2.68-1.93,4.1-2.75s2.9-1.55,4.44-2.21Z"/>
      <path d="m68.94,41.65c1.18-.9,2.59-1.8,4.21-2.69s3.46-1.77,5.51-2.63l.28-13.12-2.79-4.62.06-.39c-3.38,1.75-6.46,3.53-9.25,5.36s-5.27,3.68-7.45,5.56h.06c-2.98,2.59-5.34,5.14-7.07,7.65s-2.86,4.97-3.41,7.39c-.11.58-.21,1.09-.28,1.52s-.09.81-.06,1.13h.06c.04,1.54.3,2.95.79,4.23s1.17,2.45,2.06,3.52l1.86,3.07c.79,1.33,1.84,2.5,3.15,3.49s2.91,1.85,4.79,2.56c4,1.5,9.78,2.25,17.35,2.25l-.06-12.05-2.73-4.62-.06-.34c-.15.02-.37.04-.66.06s-.6.03-.93.04-.64.02-.93.03-.5.02-.63.02c-1.43,0-2.77-.09-4.03-.27s-2.42-.45-3.49-.83c-.24-.08-.46-.16-.65-.24s-.38-.16-.59-.24c.26-.9.8-1.83,1.62-2.77s1.91-1.97,3.28-3.06Zm-9.72,1.46c-.71,3.38.97,5.77,5.04,7.15,2.87.96,6.11,1.34,9.72,1.15l.06,7.43c-5.88,0-10.72-.71-14.53-2.14-5.65-2.18-8.54-5.75-8.67-10.73-.02-.41.04-1.02.17-1.83.9-4.19,4.14-8.67,9.72-13.46,4.09-3.53,8.55-6.55,13.38-9.07l-.17,8.45c-1.54.66-3.02,1.39-4.44,2.21s-2.78,1.73-4.1,2.75c-3.53,2.74-5.59,5.43-6.17,8.08Z"/>
    </g>
  </g>
</svg>