<?xml version="1.0" encoding="UTF-8"?>
<svg id="Calque_2" data-name="Calque 2" xmlns="http://www.w3.org/2000/svg" viewBox="0 0 96.33 83.25">
  <defs>
    <style>
      .cls-1 {
        fill: #fff;
      }

      .cls-2 {
        fill: #3fa9f5;
      }

      .cls-3 {
        fill: #ff1d25;
      }

      .cls-4 {
        fill: #fce500;
      }
    </style>
  </defs>
  <g id="Calque_1-2" data-name="Calque 1">
    <g>
      <g>
        <g>
          <g>
            <circle cx="54.86" cy="39.48" r="1.89"/>
            <circle cx="54.86" cy="36.91" r="1.76"/>
            <circle cx="54.86" cy="34.35" r="1.64"/>
            <circle cx="54.86" cy="31.79" r="1.51"/>
            <circle cx="54.86" cy="29.22" r="1.39"/>
            <circle cx="54.86" cy="26.66" r="1.26"/>
            <circle cx="54.86" cy="24.1" r="1.14"/>
            <circle cx="54.86" cy="21.53" r="1.01"/>
            <circle cx="54.86" cy="18.97" r=".89"/>
            <circle cx="54.86" cy="16.41" r=".76"/>
            <circle cx="54.86" cy="13.84" r=".64"/>
            <circle cx="54.86" cy="11.28" r=".51"/>
            <circle cx="54.86" cy="8.72" r=".39"/>
            <circle cx="54.86" cy="6.15" r=".26"/>
            <circle cx="54.86" cy="39.48" r="1.89"/>
            <circle cx="18.98" cy="39.48" r=".14"/>
            <circle cx="18.98" cy="36.91" r=".14"/>
            <path d="m18.98,34.21c.08,0,.14.06.14.14s-.06.14-.14.14-.14-.06-.14-.14.06-.14.14-.14Z"/>
            <path d="m18.98,31.65c.08,0,.14.06.14.14s-.06.14-.14.14-.14-.06-.14-.14.06-.14.14-.14Z"/>
            <path d="m55,3.59c0,.08-.06.14-.14.14s-.14-.06-.14-.14.06-.14.14-.14.14.06.14.14Z"/>
            <g>
              <circle cx="52.3" cy="39.48" r="1.76"/>
              <circle cx="52.3" cy="36.91" r="1.65"/>
              <circle cx="52.3" cy="34.35" r="1.53"/>
              <circle cx="52.3" cy="31.79" r="1.41"/>
              <circle cx="52.3" cy="29.22" r="1.3"/>
              <circle cx="52.3" cy="26.66" r="1.18"/>
              <circle cx="52.3" cy="24.1" r="1.07"/>
              <circle cx="52.3" cy="21.53" r=".95"/>
              <circle cx="52.3" cy="18.97" r=".83"/>
              <circle cx="52.3" cy="16.41" r=".72"/>
              <circle cx="52.3" cy="13.84" r=".6"/>
              <circle cx="52.3" cy="11.28" r=".49"/>
              <path d="m52.67,8.72c0,.2-.17.37-.37.37s-.37-.17-.37-.37.17-.37.37-.37.37.17.37.37Z"/>
              <path d="m52.55,6.15c0,.14-.11.25-.25.25s-.25-.11-.25-.25.11-.25.25-.25.25.11.25.25Z"/>
              <circle cx="52.3" cy="3.59" r=".14"/>
            </g>
            <g>
              <circle cx="49.73" cy="39.48" r="1.64"/>
              <circle cx="49.73" cy="36.91" r="1.53"/>
              <circle cx="49.73" cy="34.35" r="1.42"/>
              <circle cx="49.73" cy="31.79" r="1.32"/>
              <circle cx="49.73" cy="29.22" r="1.21"/>
              <circle cx="49.73" cy="26.66" r="1.1"/>
              <circle cx="49.73" cy="24.1" r=".99"/>
              <circle cx="49.73" cy="21.53" r=".89"/>
              <circle cx="49.73" cy="18.97" r=".78"/>
              <circle cx="49.73" cy="16.41" r=".67"/>
              <circle cx="49.73" cy="13.84" r=".57"/>
              <circle cx="49.73" cy="11.28" r=".46"/>
              <circle cx="49.73" cy="8.72" r=".35"/>
              <circle cx="49.73" cy="6.15" r=".25"/>
              <circle cx="49.73" cy="3.59" r=".14"/>
            </g>
            <g>
              <circle cx="47.17" cy="39.48" r="1.51"/>
              <circle cx="47.17" cy="36.91" r="1.41"/>
              <circle cx="47.17" cy="34.35" r="1.32"/>
              <circle cx="47.17" cy="31.79" r="1.22"/>
              <circle cx="47.17" cy="29.22" r="1.12"/>
              <circle cx="47.17" cy="26.66" r="1.02"/>
              <circle cx="47.17" cy="24.1" r=".92"/>
              <circle cx="47.17" cy="21.53" r=".82"/>
              <circle cx="47.17" cy="18.97" r=".73"/>
              <circle cx="47.17" cy="16.41" r=".63"/>
              <circle cx="47.17" cy="13.84" r=".53"/>
              <circle cx="47.17" cy="11.28" r=".43"/>
              <path d="m47.51,8.72c0,.18-.15.33-.33.33s-.33-.15-.33-.33.15-.33.33-.33.33.15.33.33Z"/>
              <circle cx="47.17" cy="6.15" r=".24"/>
              <path d="m47.31,3.59c0,.08-.06.14-.14.14s-.14-.06-.14-.14.06-.14.14-.14.14.06.14.14Z"/>
            </g>
            <g>
              <circle cx="44.61" cy="39.48" r="1.39"/>
              <circle cx="44.61" cy="36.91" r="1.3"/>
              <circle cx="44.61" cy="34.35" r="1.21"/>
              <circle cx="44.61" cy="31.79" r="1.12"/>
              <circle cx="44.61" cy="29.22" r="1.03"/>
              <circle cx="44.61" cy="26.66" r=".94"/>
              <circle cx="44.61" cy="24.1" r=".85"/>
              <circle cx="44.61" cy="21.53" r=".76"/>
              <circle cx="44.61" cy="18.97" r=".67"/>
              <circle cx="44.61" cy="16.41" r=".58"/>
              <circle cx="44.61" cy="13.84" r=".49"/>
              <circle cx="44.61" cy="11.28" r=".41"/>
              <path d="m44.92,8.72c0,.17-.14.32-.32.32s-.32-.14-.32-.32.14-.32.32-.32.32.14.32.32Z"/>
              <path d="m44.84,6.15c0,.13-.1.23-.23.23s-.23-.1-.23-.23.1-.23.23-.23.23.1.23.23Z"/>
            </g>
            <g>
              <circle cx="42.05" cy="39.48" r="1.26"/>
              <circle cx="42.05" cy="36.91" r="1.18"/>
              <circle cx="42.05" cy="34.35" r="1.1"/>
              <circle cx="42.05" cy="31.79" r="1.02"/>
              <circle cx="42.05" cy="29.22" r=".94"/>
              <circle cx="42.05" cy="26.66" r=".86"/>
              <circle cx="42.05" cy="24.1" r=".78"/>
              <circle cx="42.05" cy="21.53" r=".7"/>
              <circle cx="42.05" cy="18.97" r=".62"/>
              <circle cx="42.05" cy="16.41" r=".54"/>
              <circle cx="42.05" cy="13.84" r=".46"/>
              <path d="m42.42,11.28c0,.21-.17.38-.38.38s-.38-.17-.38-.38.17-.38.38-.38.38.17.38.38Z"/>
              <circle cx="42.05" cy="8.72" r=".3"/>
              <path d="m42.26,6.15c0,.12-.1.22-.22.22s-.22-.1-.22-.22.1-.22.22-.22.22.1.22.22Z"/>
            </g>
            <g>
              <circle cx="39.48" cy="39.48" r="1.14"/>
              <circle cx="39.48" cy="36.91" r="1.07"/>
              <circle cx="39.48" cy="34.35" r=".99"/>
              <circle cx="39.48" cy="31.79" r=".92"/>
              <circle cx="39.48" cy="29.22" r=".85"/>
              <circle cx="39.48" cy="26.66" r=".78"/>
              <circle cx="39.48" cy="24.1" r=".71"/>
              <circle cx="39.48" cy="21.53" r=".64"/>
              <circle cx="39.48" cy="18.97" r=".57"/>
              <circle cx="39.48" cy="16.41" r=".49"/>
              <circle cx="39.48" cy="13.84" r=".42"/>
              <path d="m39.83,11.28c0,.19-.16.35-.35.35s-.35-.16-.35-.35.16-.35.35-.35.35.16.35.35Z"/>
              <path d="m39.76,8.72c0,.16-.13.28-.28.28s-.28-.13-.28-.28.13-.28.28-.28.28.13.28.28Z"/>
            </g>
            <g>
              <circle cx="36.92" cy="39.48" r="1.01"/>
              <circle cx="36.92" cy="36.91" r=".95"/>
              <circle cx="36.92" cy="34.35" r=".89"/>
              <circle cx="36.92" cy="31.79" r=".82"/>
              <circle cx="36.92" cy="29.22" r=".76"/>
              <circle cx="36.92" cy="26.66" r=".7"/>
              <circle cx="36.92" cy="24.1" r=".64"/>
              <circle cx="36.92" cy="21.53" r=".58"/>
              <circle cx="36.92" cy="18.97" r=".51"/>
              <circle cx="36.92" cy="16.41" r=".45"/>
              <circle cx="36.92" cy="13.84" r=".39"/>
              <path d="m37.24,11.28c0,.18-.15.33-.33.33s-.33-.15-.33-.33.15-.33.33-.33.33.15.33.33Z"/>
              <circle cx="36.92" cy="8.72" r=".26"/>
            </g>
            <g>
              <circle cx="34.36" cy="39.48" r=".89"/>
              <circle cx="34.36" cy="36.91" r=".83"/>
              <circle cx="34.36" cy="34.35" r=".78"/>
              <circle cx="34.36" cy="31.79" r=".73"/>
              <circle cx="34.36" cy="29.22" r=".67"/>
              <circle cx="34.36" cy="26.66" r=".62"/>
              <circle cx="34.36" cy="24.1" r=".57"/>
              <circle cx="34.36" cy="21.53" r=".51"/>
              <circle cx="34.36" cy="18.97" r=".46"/>
              <circle cx="34.36" cy="16.41" r=".41"/>
              <path d="m34.71,13.84c0,.19-.16.35-.35.35s-.35-.16-.35-.35.16-.35.35-.35.35.16.35.35Z"/>
              <circle cx="34.36" cy="11.28" r=".3"/>
            </g>
            <g>
              <circle cx="31.79" cy="39.48" r=".76"/>
              <circle cx="31.79" cy="36.91" r=".72"/>
              <circle cx="31.79" cy="34.35" r=".67"/>
              <circle cx="31.79" cy="31.79" r=".63"/>
              <circle cx="31.79" cy="29.22" r=".58"/>
              <circle cx="31.79" cy="26.66" r=".54"/>
              <circle cx="31.79" cy="24.1" r=".49"/>
              <circle cx="31.79" cy="21.53" r=".45"/>
              <circle cx="31.79" cy="18.97" r=".41"/>
              <circle cx="31.79" cy="16.41" r=".36"/>
              <path d="m32.11,13.84c0,.17-.14.32-.32.32s-.32-.14-.32-.32.14-.32.32-.32.32.14.32.32Z"/>
              <path d="m32.06,11.28c0,.15-.12.27-.27.27s-.27-.12-.27-.27.12-.27.27-.27.27.12.27.27Z"/>
            </g>
            <g>
              <circle cx="29.23" cy="39.48" r=".64"/>
              <circle cx="29.23" cy="36.91" r=".6"/>
              <circle cx="29.23" cy="34.35" r=".57"/>
              <circle cx="29.23" cy="31.79" r=".53"/>
              <circle cx="29.23" cy="29.22" r=".49"/>
              <circle cx="29.23" cy="26.66" r=".46"/>
              <circle cx="29.23" cy="24.1" r=".42"/>
              <circle cx="29.23" cy="21.53" r=".39"/>
              <circle cx="29.23" cy="18.97" r=".35"/>
              <circle cx="29.23" cy="16.41" r=".32"/>
              <path d="m29.51,13.84c0,.16-.13.28-.28.28s-.28-.13-.28-.28.13-.28.28-.28.28.13.28.28Z"/>
            </g>
            <g>
              <circle cx="26.67" cy="39.48" r=".51"/>
              <circle cx="26.67" cy="36.91" r=".49"/>
              <circle cx="26.67" cy="34.35" r=".46"/>
              <circle cx="26.67" cy="31.79" r=".43"/>
              <circle cx="26.67" cy="29.22" r=".41"/>
              <circle cx="26.67" cy="26.66" r=".38"/>
              <path d="m27.02,24.1c0,.19-.16.35-.35.35s-.35-.16-.35-.35.16-.35.35-.35.35.16.35.35Z"/>
              <circle cx="26.67" cy="21.53" r=".33"/>
              <circle cx="26.67" cy="18.97" r=".3"/>
              <circle cx="26.67" cy="16.41" r=".27"/>
            </g>
            <g>
              <circle cx="24.1" cy="39.48" r=".39"/>
              <path d="m24.47,36.91c0,.2-.17.37-.37.37s-.37-.17-.37-.37.17-.37.37-.37.37.17.37.37Z"/>
              <path d="m24.46,34.35c0,.19-.16.35-.35.35s-.35-.16-.35-.35.16-.35.35-.35.35.16.35.35Z"/>
              <path d="m24.44,31.79c0,.18-.15.33-.33.33s-.33-.15-.33-.33.15-.33.33-.33.33.15.33.33Z"/>
              <path d="m24.42,29.22c0,.17-.14.32-.32.32s-.32-.14-.32-.32.14-.32.32-.32.32.14.32.32Z"/>
              <path d="m24.4,26.66c0,.16-.13.3-.3.3s-.3-.13-.3-.3.13-.3.3-.3.3.13.3.3Z"/>
              <path d="m24.38,24.1c0,.16-.13.28-.28.28s-.28-.13-.28-.28.13-.28.28-.28.28.13.28.28Z"/>
              <path d="m24.37,21.53c0,.15-.12.26-.26.26s-.26-.12-.26-.26.12-.26.26-.26.26.12.26.26Z"/>
            </g>
            <g>
              <circle cx="21.54" cy="39.48" r=".26"/>
              <path d="m21.79,36.91c0,.14-.11.25-.25.25s-.25-.11-.25-.25.11-.25.25-.25.25.11.25.25Z"/>
              <path d="m21.78,34.35c0,.14-.11.25-.25.25s-.25-.11-.25-.25.11-.25.25-.25.25.11.25.25Z"/>
              <circle cx="21.54" cy="31.79" r=".24"/>
              <path d="m21.77,29.22c0,.13-.1.23-.23.23s-.23-.1-.23-.23.1-.23.23-.23.23.1.23.23Z"/>
              <path d="m21.76,26.66c0,.12-.1.22-.22.22s-.22-.1-.22-.22.1-.22.22-.22.22.1.22.22Z"/>
            </g>
          </g>
          <g>
            <circle cx="54.86" cy="39.48" r="1.89"/>
            <circle cx="54.86" cy="36.91" r="1.76"/>
            <circle cx="54.86" cy="34.35" r="1.64"/>
            <circle cx="54.86" cy="31.79" r="1.51"/>
            <circle cx="54.86" cy="29.22" r="1.39"/>
            <circle cx="54.86" cy="26.66" r="1.26"/>
            <circle cx="54.86" cy="24.1" r="1.14"/>
            <circle cx="54.86" cy="21.53" r="1.01"/>
            <circle cx="54.86" cy="18.97" r=".89"/>
            <circle cx="54.86" cy="16.41" r=".76"/>
            <circle cx="54.86" cy="13.84" r=".64"/>
            <circle cx="54.86" cy="11.28" r=".51"/>
            <circle cx="54.86" cy="8.72" r=".39"/>
            <circle cx="54.86" cy="6.15" r=".26"/>
            <circle cx="54.86" cy="39.48" r="1.89"/>
            <path d="m90.75,39.34c-.08,0-.14.06-.14.14s.06.14.14.14.14-.06.14-.14-.06-.14-.14-.14Z"/>
            <path d="m90.75,36.77c-.08,0-.14.06-.14.14s.06.14.14.14.14-.06.14-.14-.06-.14-.14-.14Z"/>
            <path d="m90.75,34.21c-.08,0-.14.06-.14.14s.06.14.14.14.14-.06.14-.14-.06-.14-.14-.14Z"/>
            <path d="m90.75,31.65c-.08,0-.14.06-.14.14s.06.14.14.14.14-.06.14-.14-.06-.14-.14-.14Z"/>
            <path d="m54.72,3.59c0,.08.06.14.14.14s.14-.06.14-.14-.06-.14-.14-.14-.14.06-.14.14Z"/>
            <g>
              <circle cx="57.42" cy="39.48" r="1.76"/>
              <circle cx="57.42" cy="36.91" r="1.65"/>
              <circle cx="57.42" cy="34.35" r="1.53"/>
              <circle cx="57.42" cy="31.79" r="1.41"/>
              <circle cx="57.42" cy="29.22" r="1.3"/>
              <circle cx="57.42" cy="26.66" r="1.18"/>
              <circle cx="57.42" cy="24.1" r="1.07"/>
              <circle cx="57.42" cy="21.53" r=".95"/>
              <circle cx="57.42" cy="18.97" r=".83"/>
              <circle cx="57.42" cy="16.41" r=".72"/>
              <circle cx="57.42" cy="13.84" r=".6"/>
              <circle cx="57.42" cy="11.28" r=".49"/>
              <path d="m57.05,8.72c0,.2.17.37.37.37s.37-.17.37-.37-.17-.37-.37-.37-.37.17-.37.37Z"/>
              <path d="m57.17,6.15c0,.14.11.25.25.25s.25-.11.25-.25-.11-.25-.25-.25-.25.11-.25.25Z"/>
              <path d="m57.29,3.59c0,.08.06.14.14.14s.14-.06.14-.14-.06-.14-.14-.14-.14.06-.14.14Z"/>
            </g>
            <g>
              <circle cx="59.99" cy="39.48" r="1.64"/>
              <circle cx="59.99" cy="36.91" r="1.53"/>
              <circle cx="59.99" cy="34.35" r="1.42"/>
              <circle cx="59.99" cy="31.79" r="1.32"/>
              <circle cx="59.99" cy="29.22" r="1.21"/>
              <circle cx="59.99" cy="26.66" r="1.1"/>
              <circle cx="59.99" cy="24.1" r=".99"/>
              <circle cx="59.99" cy="21.53" r=".89"/>
              <circle cx="59.99" cy="18.97" r=".78"/>
              <circle cx="59.99" cy="16.41" r=".67"/>
              <circle cx="59.99" cy="13.84" r=".57"/>
              <circle cx="59.99" cy="11.28" r=".46"/>
              <circle cx="59.99" cy="8.72" r=".35"/>
              <circle cx="59.99" cy="6.15" r=".25"/>
              <circle cx="59.99" cy="3.59" r=".14"/>
            </g>
            <g>
              <circle cx="62.55" cy="39.48" r="1.51"/>
              <circle cx="62.55" cy="36.91" r="1.41"/>
              <circle cx="62.55" cy="34.35" r="1.32"/>
              <circle cx="62.55" cy="31.79" r="1.22"/>
              <circle cx="62.55" cy="29.22" r="1.12"/>
              <circle cx="62.55" cy="26.66" r="1.02"/>
              <circle cx="62.55" cy="24.1" r=".92"/>
              <circle cx="62.55" cy="21.53" r=".82"/>
              <circle cx="62.55" cy="18.97" r=".73"/>
              <circle cx="62.55" cy="16.41" r=".63"/>
              <circle cx="62.55" cy="13.84" r=".53"/>
              <circle cx="62.55" cy="11.28" r=".43"/>
              <circle cx="62.55" cy="8.72" r=".33"/>
              <circle cx="62.55" cy="6.15" r=".24"/>
              <circle cx="62.55" cy="3.59" r=".14"/>
            </g>
            <g>
              <circle cx="65.11" cy="39.48" r="1.39"/>
              <circle cx="65.11" cy="36.91" r="1.3"/>
              <circle cx="65.11" cy="34.35" r="1.21"/>
              <circle cx="65.11" cy="31.79" r="1.12"/>
              <circle cx="65.11" cy="29.22" r="1.03"/>
              <circle cx="65.11" cy="26.66" r=".94"/>
              <circle cx="65.11" cy="24.1" r=".85"/>
              <circle cx="65.11" cy="21.53" r=".76"/>
              <circle cx="65.11" cy="18.97" r=".67"/>
              <circle cx="65.11" cy="16.41" r=".58"/>
              <circle cx="65.11" cy="13.84" r=".49"/>
              <circle cx="65.11" cy="11.28" r=".41"/>
              <path d="m64.8,8.72c0,.17.14.32.32.32s.32-.14.32-.32-.14-.32-.32-.32-.32.14-.32.32Z"/>
              <path d="m64.89,6.15c0,.13.1.23.23.23s.23-.1.23-.23-.1-.23-.23-.23-.23.1-.23.23Z"/>
            </g>
            <g>
              <circle cx="67.68" cy="39.48" r="1.26"/>
              <circle cx="67.68" cy="36.91" r="1.18"/>
              <circle cx="67.68" cy="34.35" r="1.1"/>
              <circle cx="67.68" cy="31.79" r="1.02"/>
              <circle cx="67.68" cy="29.22" r=".94"/>
              <circle cx="67.68" cy="26.66" r=".86"/>
              <circle cx="67.68" cy="24.1" r=".78"/>
              <circle cx="67.68" cy="21.53" r=".7"/>
              <circle cx="67.68" cy="18.97" r=".62"/>
              <circle cx="67.68" cy="16.41" r=".54"/>
              <circle cx="67.68" cy="13.84" r=".46"/>
              <path d="m67.3,11.28c0,.21.17.38.38.38s.38-.17.38-.38-.17-.38-.38-.38-.38.17-.38.38Z"/>
              <path d="m67.38,8.72c0,.16.13.3.3.3s.3-.13.3-.3-.13-.3-.3-.3-.3.13-.3.3Z"/>
              <path d="m67.46,6.15c0,.12.1.22.22.22s.22-.1.22-.22-.1-.22-.22-.22-.22.1-.22.22Z"/>
            </g>
            <g>
              <circle cx="70.24" cy="39.48" r="1.14"/>
              <circle cx="70.24" cy="36.91" r="1.07"/>
              <circle cx="70.24" cy="34.35" r=".99"/>
              <circle cx="70.24" cy="31.79" r=".92"/>
              <circle cx="70.24" cy="29.22" r=".85"/>
              <circle cx="70.24" cy="26.66" r=".78"/>
              <circle cx="70.24" cy="24.1" r=".71"/>
              <circle cx="70.24" cy="21.53" r=".64"/>
              <circle cx="70.24" cy="18.97" r=".57"/>
              <circle cx="70.24" cy="16.41" r=".49"/>
              <circle cx="70.24" cy="13.84" r=".42"/>
              <path d="m69.89,11.28c0,.19.16.35.35.35s.35-.16.35-.35-.16-.35-.35-.35-.35.16-.35.35Z"/>
              <path d="m69.96,8.72c0,.16.13.28.28.28s.28-.13.28-.28-.13-.28-.28-.28-.28.13-.28.28Z"/>
            </g>
            <g>
              <circle cx="72.8" cy="39.48" r="1.01"/>
              <circle cx="72.8" cy="36.91" r=".95"/>
              <circle cx="72.8" cy="34.35" r=".89"/>
              <circle cx="72.8" cy="31.79" r=".82"/>
              <circle cx="72.8" cy="29.22" r=".76"/>
              <circle cx="72.8" cy="26.66" r=".7"/>
              <circle cx="72.8" cy="24.1" r=".64"/>
              <circle cx="72.8" cy="21.53" r=".58"/>
              <circle cx="72.8" cy="18.97" r=".51"/>
              <circle cx="72.8" cy="16.41" r=".45"/>
              <circle cx="72.8" cy="13.84" r=".39"/>
              <path d="m72.48,11.28c0,.18.15.33.33.33s.33-.15.33-.33-.15-.33-.33-.33-.33.15-.33.33Z"/>
              <circle cx="72.8" cy="8.72" r=".26"/>
            </g>
            <g>
              <circle cx="75.37" cy="39.48" r=".89"/>
              <circle cx="75.37" cy="36.91" r=".83"/>
              <circle cx="75.37" cy="34.35" r=".78"/>
              <circle cx="75.37" cy="31.79" r=".73"/>
              <circle cx="75.37" cy="29.22" r=".67"/>
              <circle cx="75.37" cy="26.66" r=".62"/>
              <circle cx="75.37" cy="24.1" r=".57"/>
              <circle cx="75.37" cy="21.53" r=".51"/>
              <circle cx="75.37" cy="18.97" r=".46"/>
              <circle cx="75.37" cy="16.41" r=".41"/>
              <path d="m75.01,13.84c0,.19.16.35.35.35s.35-.16.35-.35-.16-.35-.35-.35-.35.16-.35.35Z"/>
              <circle cx="75.37" cy="11.28" r=".3"/>
            </g>
            <g>
              <circle cx="77.93" cy="39.48" r=".76"/>
              <circle cx="77.93" cy="36.91" r=".72"/>
              <circle cx="77.93" cy="34.35" r=".67"/>
              <circle cx="77.93" cy="31.79" r=".63"/>
              <circle cx="77.93" cy="29.22" r=".58"/>
              <circle cx="77.93" cy="26.66" r=".54"/>
              <circle cx="77.93" cy="24.1" r=".49"/>
              <circle cx="77.93" cy="21.53" r=".45"/>
              <circle cx="77.93" cy="18.97" r=".41"/>
              <circle cx="77.93" cy="16.41" r=".36"/>
              <path d="m77.61,13.84c0,.17.14.32.32.32s.32-.14.32-.32-.14-.32-.32-.32-.32.14-.32.32Z"/>
              <path d="m77.66,11.28c0,.15.12.27.27.27s.27-.12.27-.27-.12-.27-.27-.27-.27.12-.27.27Z"/>
            </g>
            <g>
              <circle cx="80.49" cy="39.48" r=".64"/>
              <circle cx="80.49" cy="36.91" r=".6"/>
              <circle cx="80.49" cy="34.35" r=".57"/>
              <circle cx="80.49" cy="31.79" r=".53"/>
              <circle cx="80.49" cy="29.22" r=".49"/>
              <circle cx="80.49" cy="26.66" r=".46"/>
              <circle cx="80.49" cy="24.1" r=".42"/>
              <circle cx="80.49" cy="21.53" r=".39"/>
              <circle cx="80.49" cy="18.97" r=".35"/>
              <path d="m80.18,16.41c0,.17.14.32.32.32s.32-.14.32-.32-.14-.32-.32-.32-.32.14-.32.32Z"/>
              <path d="m80.21,13.84c0,.16.13.28.28.28s.28-.13.28-.28-.13-.28-.28-.28-.28.13-.28.28Z"/>
            </g>
            <g>
              <circle cx="83.06" cy="39.48" r=".51"/>
              <circle cx="83.06" cy="36.91" r=".49"/>
              <circle cx="83.06" cy="34.35" r=".46"/>
              <circle cx="83.06" cy="31.79" r=".43"/>
              <circle cx="83.06" cy="29.22" r=".41"/>
              <circle cx="83.06" cy="26.66" r=".38"/>
              <path d="m82.7,24.1c0,.19.16.35.35.35s.35-.16.35-.35-.16-.35-.35-.35-.35.16-.35.35Z"/>
              <circle cx="83.06" cy="21.53" r=".33"/>
              <circle cx="83.06" cy="18.97" r=".3"/>
              <circle cx="83.06" cy="16.41" r=".27"/>
            </g>
            <g>
              <circle cx="85.62" cy="39.48" r=".39"/>
              <path d="m85.25,36.91c0,.2.17.37.37.37s.37-.17.37-.37-.17-.37-.37-.37-.37.17-.37.37Z"/>
              <path d="m85.27,34.35c0,.19.16.35.35.35s.35-.16.35-.35-.16-.35-.35-.35-.35.16-.35.35Z"/>
              <path d="m85.28,31.79c0,.18.15.33.33.33s.33-.15.33-.33-.15-.33-.33-.33-.33.15-.33.33Z"/>
              <path d="m85.3,29.22c0,.17.14.32.32.32s.32-.14.32-.32-.14-.32-.32-.32-.32.14-.32.32Z"/>
              <circle cx="85.62" cy="26.66" r=".3"/>
              <path d="m85.34,24.1c0,.16.13.28.28.28s.28-.13.28-.28-.13-.28-.28-.28-.28.13-.28.28Z"/>
              <path d="m85.36,21.53c0,.15.12.26.26.26s.26-.12.26-.26-.12-.26-.26-.26-.26.12-.26.26Z"/>
            </g>
            <g>
              <path d="m88.18,39.21c-.15,0-.26.12-.26.26s.12.26.26.26.26-.12.26-.26-.12-.26-.26-.26Z"/>
              <path d="m87.93,36.91c0,.14.11.25.25.25s.25-.11.25-.25-.11-.25-.25-.25-.25.11-.25.25Z"/>
              <path d="m87.94,34.35c0,.14.11.25.25.25s.25-.11.25-.25-.11-.25-.25-.25-.25.11-.25.25Z"/>
              <circle cx="88.18" cy="31.79" r=".24"/>
              <path d="m87.95,29.22c0,.13.1.23.23.23s.23-.1.23-.23-.1-.23-.23-.23-.23.1-.23.23Z"/>
              <path d="m87.96,26.66c0,.12.1.22.22.22s.22-.1.22-.22-.1-.22-.22-.22-.22.1-.22.22Z"/>
            </g>
          </g>
        </g>
        <g>
          <g>
            <circle cx="54.86" cy="39.48" r="1.89"/>
            <circle cx="54.86" cy="42.04" r="1.76"/>
            <circle cx="54.86" cy="44.6" r="1.64"/>
            <circle cx="54.86" cy="47.17" r="1.51"/>
            <circle cx="54.86" cy="49.73" r="1.39"/>
            <circle cx="54.86" cy="52.29" r="1.26"/>
            <circle cx="54.86" cy="54.85" r="1.14"/>
            <circle cx="54.86" cy="57.42" r="1.01"/>
            <circle cx="54.86" cy="59.98" r=".89"/>
            <circle cx="54.86" cy="62.54" r=".76"/>
            <circle cx="54.86" cy="65.11" r=".64"/>
            <circle cx="54.86" cy="67.67" r=".51"/>
            <circle cx="54.86" cy="70.23" r=".39"/>
            <circle cx="54.86" cy="72.8" r=".26"/>
            <circle cx="54.86" cy="39.48" r="1.89"/>
            <circle cx="18.98" cy="39.48" r=".14"/>
            <circle cx="18.98" cy="42.04" r=".14"/>
            <path d="m18.98,44.74c.08,0,.14-.06.14-.14s-.06-.14-.14-.14-.14.06-.14.14.06.14.14.14Z"/>
            <circle cx="18.98" cy="47.17" r=".14"/>
            <path d="m55,75.36c0-.08-.06-.14-.14-.14s-.14.06-.14.14.06.14.14.14.14-.06.14-.14Z"/>
            <g>
              <circle cx="52.3" cy="39.48" r="1.76"/>
              <circle cx="52.3" cy="42.04" r="1.65"/>
              <circle cx="52.3" cy="44.6" r="1.53"/>
              <circle cx="52.3" cy="47.17" r="1.41"/>
              <circle cx="52.3" cy="49.73" r="1.3"/>
              <circle cx="52.3" cy="52.29" r="1.18"/>
              <circle cx="52.3" cy="54.85" r="1.07"/>
              <circle cx="52.3" cy="57.42" r=".95"/>
              <circle cx="52.3" cy="59.98" r=".83"/>
              <circle cx="52.3" cy="62.54" r=".72"/>
              <circle cx="52.3" cy="65.11" r=".6"/>
              <circle cx="52.3" cy="67.67" r=".49"/>
              <circle cx="52.3" cy="70.23" r=".37"/>
              <path d="m52.55,72.8c0-.14-.11-.25-.25-.25s-.25.11-.25.25.11.25.25.25.25-.11.25-.25Z"/>
              <path d="m52.44,75.36c0-.08-.06-.14-.14-.14s-.14.06-.14.14.06.14.14.14.14-.06.14-.14Z"/>
            </g>
            <g>
              <circle cx="49.73" cy="39.48" r="1.64"/>
              <circle cx="49.73" cy="42.04" r="1.53"/>
              <circle cx="49.73" cy="44.6" r="1.42"/>
              <circle cx="49.73" cy="47.17" r="1.32"/>
              <circle cx="49.73" cy="49.73" r="1.21"/>
              <circle cx="49.73" cy="52.29" r="1.1"/>
              <circle cx="49.73" cy="54.85" r=".99"/>
              <circle cx="49.73" cy="57.42" r=".89"/>
              <circle cx="49.73" cy="59.98" r=".78"/>
              <circle cx="49.73" cy="62.54" r=".67"/>
              <circle cx="49.73" cy="65.11" r=".57"/>
              <circle cx="49.73" cy="67.67" r=".46"/>
              <circle cx="49.73" cy="70.23" r=".35"/>
              <circle cx="49.73" cy="72.8" r=".25"/>
              <path d="m49.87,75.36c0-.08-.06-.14-.14-.14s-.14.06-.14.14.06.14.14.14.14-.06.14-.14Z"/>
            </g>
            <g>
              <circle cx="47.17" cy="39.48" r="1.51"/>
              <circle cx="47.17" cy="42.04" r="1.41"/>
              <circle cx="47.17" cy="44.6" r="1.32"/>
              <circle cx="47.17" cy="47.17" r="1.22"/>
              <circle cx="47.17" cy="49.73" r="1.12"/>
              <circle cx="47.17" cy="52.29" r="1.02"/>
              <circle cx="47.17" cy="54.85" r=".92"/>
              <circle cx="47.17" cy="57.42" r=".82"/>
              <circle cx="47.17" cy="59.98" r=".73"/>
              <circle cx="47.17" cy="62.54" r=".63"/>
              <circle cx="47.17" cy="65.11" r=".53"/>
              <circle cx="47.17" cy="67.67" r=".43"/>
              <path d="m47.51,70.23c0-.18-.15-.33-.33-.33s-.33.15-.33.33.15.33.33.33.33-.15.33-.33Z"/>
              <circle cx="47.17" cy="72.8" r=".24"/>
              <path d="m47.31,75.36c0-.08-.06-.14-.14-.14s-.14.06-.14.14.06.14.14.14.14-.06.14-.14Z"/>
            </g>
            <g>
              <circle cx="44.61" cy="39.48" r="1.39"/>
              <circle cx="44.61" cy="42.04" r="1.3"/>
              <circle cx="44.61" cy="44.6" r="1.21"/>
              <circle cx="44.61" cy="47.17" r="1.12"/>
              <circle cx="44.61" cy="49.73" r="1.03"/>
              <circle cx="44.61" cy="52.29" r=".94"/>
              <circle cx="44.61" cy="54.85" r=".85"/>
              <circle cx="44.61" cy="57.42" r=".76"/>
              <circle cx="44.61" cy="59.98" r=".67"/>
              <circle cx="44.61" cy="62.54" r=".58"/>
              <circle cx="44.61" cy="65.11" r=".49"/>
              <circle cx="44.61" cy="67.67" r=".41"/>
              <circle cx="44.61" cy="70.23" r=".32"/>
              <path d="m44.84,72.8c0-.13-.1-.23-.23-.23s-.23.1-.23.23.1.23.23.23.23-.1.23-.23Z"/>
            </g>
            <g>
              <circle cx="42.05" cy="39.48" r="1.26"/>
              <circle cx="42.05" cy="42.04" r="1.18"/>
              <circle cx="42.05" cy="44.6" r="1.1"/>
              <circle cx="42.05" cy="47.17" r="1.02"/>
              <circle cx="42.05" cy="49.73" r=".94"/>
              <circle cx="42.05" cy="52.29" r=".86"/>
              <circle cx="42.05" cy="54.85" r=".78"/>
              <circle cx="42.05" cy="57.42" r=".7"/>
              <circle cx="42.05" cy="59.98" r=".62"/>
              <circle cx="42.05" cy="62.54" r=".54"/>
              <circle cx="42.05" cy="65.11" r=".46"/>
              <path d="m42.42,67.67c0-.21-.17-.38-.38-.38s-.38.17-.38.38.17.38.38.38.38-.17.38-.38Z"/>
              <circle cx="42.05" cy="70.23" r=".3"/>
              <path d="m42.26,72.8c0-.12-.1-.22-.22-.22s-.22.1-.22.22.1.22.22.22.22-.1.22-.22Z"/>
            </g>
            <g>
              <circle cx="39.48" cy="39.48" r="1.14"/>
              <circle cx="39.48" cy="42.04" r="1.07"/>
              <circle cx="39.48" cy="44.6" r=".99"/>
              <circle cx="39.48" cy="47.17" r=".92"/>
              <circle cx="39.48" cy="49.73" r=".85"/>
              <circle cx="39.48" cy="52.29" r=".78"/>
              <circle cx="39.48" cy="54.85" r=".71"/>
              <circle cx="39.48" cy="57.42" r=".64"/>
              <circle cx="39.48" cy="59.98" r=".57"/>
              <circle cx="39.48" cy="62.54" r=".49"/>
              <circle cx="39.48" cy="65.11" r=".42"/>
              <path d="m39.83,67.67c0-.19-.16-.35-.35-.35s-.35.16-.35.35.16.35.35.35.35-.16.35-.35Z"/>
              <path d="m39.76,70.23c0-.16-.13-.28-.28-.28s-.28.13-.28.28.13.28.28.28.28-.13.28-.28Z"/>
            </g>
            <g>
              <circle cx="36.92" cy="39.48" r="1.01"/>
              <circle cx="36.92" cy="42.04" r=".95"/>
              <circle cx="36.92" cy="44.6" r=".89"/>
              <circle cx="36.92" cy="47.17" r=".82"/>
              <circle cx="36.92" cy="49.73" r=".76"/>
              <circle cx="36.92" cy="52.29" r=".7"/>
              <circle cx="36.92" cy="54.85" r=".64"/>
              <circle cx="36.92" cy="57.42" r=".58"/>
              <circle cx="36.92" cy="59.98" r=".51"/>
              <circle cx="36.92" cy="62.54" r=".45"/>
              <circle cx="36.92" cy="65.11" r=".39"/>
              <circle cx="36.92" cy="67.67" r=".33"/>
              <circle cx="36.92" cy="70.23" r=".26"/>
            </g>
            <g>
              <circle cx="34.36" cy="39.48" r=".89"/>
              <circle cx="34.36" cy="42.04" r=".83"/>
              <circle cx="34.36" cy="44.6" r=".78"/>
              <circle cx="34.36" cy="47.17" r=".73"/>
              <circle cx="34.36" cy="49.73" r=".67"/>
              <circle cx="34.36" cy="52.29" r=".62"/>
              <circle cx="34.36" cy="54.85" r=".57"/>
              <circle cx="34.36" cy="57.42" r=".51"/>
              <circle cx="34.36" cy="59.98" r=".46"/>
              <circle cx="34.36" cy="62.54" r=".41"/>
              <path d="m34.71,65.11c0-.19-.16-.35-.35-.35s-.35.16-.35.35.16.35.35.35.35-.16.35-.35Z"/>
              <circle cx="34.36" cy="67.67" r=".3"/>
            </g>
            <g>
              <circle cx="31.79" cy="39.48" r=".76"/>
              <circle cx="31.79" cy="42.04" r=".72"/>
              <circle cx="31.79" cy="44.6" r=".67"/>
              <circle cx="31.79" cy="47.17" r=".63"/>
              <circle cx="31.79" cy="49.73" r=".58"/>
              <circle cx="31.79" cy="52.29" r=".54"/>
              <circle cx="31.79" cy="54.85" r=".49"/>
              <circle cx="31.79" cy="57.42" r=".45"/>
              <circle cx="31.79" cy="59.98" r=".41"/>
              <circle cx="31.79" cy="62.54" r=".36"/>
              <path d="m32.11,65.11c0-.17-.14-.32-.32-.32s-.32.14-.32.32.14.32.32.32.32-.14.32-.32Z"/>
              <circle cx="31.79" cy="67.67" r=".27"/>
            </g>
            <g>
              <circle cx="29.23" cy="39.48" r=".64"/>
              <circle cx="29.23" cy="42.04" r=".6"/>
              <circle cx="29.23" cy="44.6" r=".57"/>
              <circle cx="29.23" cy="47.17" r=".53"/>
              <circle cx="29.23" cy="49.73" r=".49"/>
              <circle cx="29.23" cy="52.29" r=".46"/>
              <circle cx="29.23" cy="54.85" r=".42"/>
              <circle cx="29.23" cy="57.42" r=".39"/>
              <circle cx="29.23" cy="59.98" r=".35"/>
              <path d="m29.55,62.54c0-.17-.14-.32-.32-.32s-.32.14-.32.32.14.32.32.32.32-.14.32-.32Z"/>
              <path d="m29.51,65.11c0-.16-.13-.28-.28-.28s-.28.13-.28.28.13.28.28.28.28-.13.28-.28Z"/>
            </g>
            <g>
              <circle cx="26.67" cy="39.48" r=".51"/>
              <circle cx="26.67" cy="42.04" r=".49"/>
              <circle cx="26.67" cy="44.6" r=".46"/>
              <circle cx="26.67" cy="47.17" r=".43"/>
              <circle cx="26.67" cy="49.73" r=".41"/>
              <path d="m27.05,52.29c0-.21-.17-.38-.38-.38s-.38.17-.38.38.17.38.38.38.38-.17.38-.38Z"/>
              <path d="m27.02,54.85c0-.19-.16-.35-.35-.35s-.35.16-.35.35.16.35.35.35.35-.16.35-.35Z"/>
              <circle cx="26.67" cy="57.42" r=".33"/>
              <circle cx="26.67" cy="59.98" r=".3"/>
              <circle cx="26.67" cy="62.54" r=".27"/>
            </g>
            <g>
              <circle cx="24.1" cy="39.48" r=".39"/>
              <path d="m24.47,42.04c0-.2-.17-.37-.37-.37s-.37.17-.37.37.17.37.37.37.37-.17.37-.37Z"/>
              <path d="m24.46,44.6c0-.19-.16-.35-.35-.35s-.35.16-.35.35.16.35.35.35.35-.16.35-.35Z"/>
              <path d="m24.44,47.17c0-.18-.15-.33-.33-.33s-.33.15-.33.33.15.33.33.33.33-.15.33-.33Z"/>
              <path d="m24.42,49.73c0-.17-.14-.32-.32-.32s-.32.14-.32.32.14.32.32.32.32-.14.32-.32Z"/>
              <path d="m24.4,52.29c0-.16-.13-.3-.3-.3s-.3.13-.3.3.13.3.3.3.3-.13.3-.3Z"/>
              <path d="m24.38,54.85c0-.16-.13-.28-.28-.28s-.28.13-.28.28.13.28.28.28.28-.13.28-.28Z"/>
              <path d="m24.37,57.42c0-.15-.12-.26-.26-.26s-.26.12-.26.26.12.26.26.26.26-.12.26-.26Z"/>
            </g>
            <g>
              <circle cx="21.54" cy="39.48" r=".26"/>
              <path d="m21.79,42.04c0-.14-.11-.25-.25-.25s-.25.11-.25.25.11.25.25.25.25-.11.25-.25Z"/>
              <path d="m21.78,44.6c0-.14-.11-.25-.25-.25s-.25.11-.25.25.11.25.25.25.25-.11.25-.25Z"/>
              <circle cx="21.54" cy="47.17" r=".24"/>
              <path d="m21.77,49.73c0-.13-.1-.23-.23-.23s-.23.1-.23.23.1.23.23.23.23-.1.23-.23Z"/>
              <path d="m21.76,52.29c0-.12-.1-.22-.22-.22s-.22.1-.22.22.1.22.22.22.22-.1.22-.22Z"/>
            </g>
          </g>
          <g>
            <circle cx="54.86" cy="39.48" r="1.89"/>
            <circle cx="54.86" cy="42.04" r="1.76"/>
            <circle cx="54.86" cy="44.6" r="1.64"/>
            <circle cx="54.86" cy="47.17" r="1.51"/>
            <circle cx="54.86" cy="49.73" r="1.39"/>
            <circle cx="54.86" cy="52.29" r="1.26"/>
            <circle cx="54.86" cy="54.85" r="1.14"/>
            <circle cx="54.86" cy="57.42" r="1.01"/>
            <circle cx="54.86" cy="59.98" r=".89"/>
            <circle cx="54.86" cy="62.54" r=".76"/>
            <circle cx="54.86" cy="65.11" r=".64"/>
            <circle cx="54.86" cy="67.67" r=".51"/>
            <circle cx="54.86" cy="70.23" r=".39"/>
            <circle cx="54.86" cy="72.8" r=".26"/>
            <circle cx="54.86" cy="39.48" r="1.89"/>
            <path d="m90.75,39.61c-.08,0-.14-.06-.14-.14s.06-.14.14-.14.14.06.14.14-.06.14-.14.14Z"/>
            <path d="m90.75,42.18c-.08,0-.14-.06-.14-.14s.06-.14.14-.14.14.06.14.14-.06.14-.14.14Z"/>
            <path d="m90.75,44.74c-.08,0-.14-.06-.14-.14s.06-.14.14-.14.14.06.14.14-.06.14-.14.14Z"/>
            <path d="m90.75,47.3c-.08,0-.14-.06-.14-.14s.06-.14.14-.14.14.06.14.14-.06.14-.14.14Z"/>
            <path d="m54.72,75.36c0-.08.06-.14.14-.14s.14.06.14.14-.06.14-.14.14-.14-.06-.14-.14Z"/>
            <g>
              <circle cx="57.42" cy="39.48" r="1.76"/>
              <circle cx="57.42" cy="42.04" r="1.65"/>
              <circle cx="57.42" cy="44.6" r="1.53"/>
              <circle cx="57.42" cy="47.17" r="1.41"/>
              <circle cx="57.42" cy="49.73" r="1.3"/>
              <circle cx="57.42" cy="52.29" r="1.18"/>
              <circle cx="57.42" cy="54.85" r="1.07"/>
              <circle cx="57.42" cy="57.42" r=".95"/>
              <circle cx="57.42" cy="59.98" r=".83"/>
              <circle cx="57.42" cy="62.54" r=".72"/>
              <circle cx="57.42" cy="65.11" r=".6"/>
              <circle cx="57.42" cy="67.67" r=".49"/>
              <circle cx="57.42" cy="70.23" r=".37"/>
              <path d="m57.17,72.8c0-.14.11-.25.25-.25s.25.11.25.25-.11.25-.25.25-.25-.11-.25-.25Z"/>
              <path d="m57.29,75.36c0-.08.06-.14.14-.14s.14.06.14.14-.06.14-.14.14-.14-.06-.14-.14Z"/>
            </g>
            <g>
              <circle cx="59.99" cy="39.48" r="1.64"/>
              <circle cx="59.99" cy="42.04" r="1.53"/>
              <circle cx="59.99" cy="44.6" r="1.42"/>
              <circle cx="59.99" cy="47.17" r="1.32"/>
              <circle cx="59.99" cy="49.73" r="1.21"/>
              <circle cx="59.99" cy="52.29" r="1.1"/>
              <circle cx="59.99" cy="54.85" r=".99"/>
              <circle cx="59.99" cy="57.42" r=".89"/>
              <circle cx="59.99" cy="59.98" r=".78"/>
              <circle cx="59.99" cy="62.54" r=".67"/>
              <circle cx="59.99" cy="65.11" r=".57"/>
              <circle cx="59.99" cy="67.67" r=".46"/>
              <circle cx="59.99" cy="70.23" r=".35"/>
              <circle cx="59.99" cy="72.8" r=".25"/>
              <path d="m59.85,75.36c0-.08.06-.14.14-.14s.14.06.14.14-.06.14-.14.14-.14-.06-.14-.14Z"/>
            </g>
            <g>
              <circle cx="62.55" cy="39.48" r="1.51"/>
              <circle cx="62.55" cy="42.04" r="1.41"/>
              <circle cx="62.55" cy="44.6" r="1.32"/>
              <circle cx="62.55" cy="47.17" r="1.22"/>
              <circle cx="62.55" cy="49.73" r="1.12"/>
              <circle cx="62.55" cy="52.29" r="1.02"/>
              <circle cx="62.55" cy="54.85" r=".92"/>
              <circle cx="62.55" cy="57.42" r=".82"/>
              <circle cx="62.55" cy="59.98" r=".73"/>
              <circle cx="62.55" cy="62.54" r=".63"/>
              <circle cx="62.55" cy="65.11" r=".53"/>
              <circle cx="62.55" cy="67.67" r=".43"/>
              <circle cx="62.55" cy="70.23" r=".33"/>
              <circle cx="62.55" cy="72.8" r=".24"/>
              <path d="m62.41,75.36c0-.08.06-.14.14-.14s.14.06.14.14-.06.14-.14.14-.14-.06-.14-.14Z"/>
            </g>
            <g>
              <circle cx="65.11" cy="39.48" r="1.39"/>
              <circle cx="65.11" cy="42.04" r="1.3"/>
              <circle cx="65.11" cy="44.6" r="1.21"/>
              <circle cx="65.11" cy="47.17" r="1.12"/>
              <circle cx="65.11" cy="49.73" r="1.03"/>
              <circle cx="65.11" cy="52.29" r=".94"/>
              <circle cx="65.11" cy="54.85" r=".85"/>
              <circle cx="65.11" cy="57.42" r=".76"/>
              <circle cx="65.11" cy="59.98" r=".67"/>
              <circle cx="65.11" cy="62.54" r=".58"/>
              <circle cx="65.11" cy="65.11" r=".49"/>
              <circle cx="65.11" cy="67.67" r=".41"/>
              <path d="m64.8,70.23c0-.17.14-.32.32-.32s.32.14.32.32-.14.32-.32.32-.32-.14-.32-.32Z"/>
              <path d="m64.89,72.8c0-.13.1-.23.23-.23s.23.1.23.23-.1.23-.23.23-.23-.1-.23-.23Z"/>
            </g>
            <g>
              <circle cx="67.68" cy="39.48" r="1.26"/>
              <circle cx="67.68" cy="42.04" r="1.18"/>
              <circle cx="67.68" cy="44.6" r="1.1"/>
              <circle cx="67.68" cy="47.17" r="1.02"/>
              <circle cx="67.68" cy="49.73" r=".94"/>
              <circle cx="67.68" cy="52.29" r=".86"/>
              <circle cx="67.68" cy="54.85" r=".78"/>
              <circle cx="67.68" cy="57.42" r=".7"/>
              <circle cx="67.68" cy="59.98" r=".62"/>
              <circle cx="67.68" cy="62.54" r=".54"/>
              <circle cx="67.68" cy="65.11" r=".46"/>
              <path d="m67.3,67.67c0-.21.17-.38.38-.38s.38.17.38.38-.17.38-.38.38-.38-.17-.38-.38Z"/>
              <path d="m67.38,70.23c0-.16.13-.3.3-.3s.3.13.3.3-.13.3-.3.3-.3-.13-.3-.3Z"/>
              <path d="m67.46,72.8c0-.12.1-.22.22-.22s.22.1.22.22-.1.22-.22.22-.22-.1-.22-.22Z"/>
            </g>
            <g>
              <circle cx="70.24" cy="39.48" r="1.14"/>
              <circle cx="70.24" cy="42.04" r="1.07"/>
              <circle cx="70.24" cy="44.6" r=".99"/>
              <circle cx="70.24" cy="47.17" r=".92"/>
              <circle cx="70.24" cy="49.73" r=".85"/>
              <circle cx="70.24" cy="52.29" r=".78"/>
              <circle cx="70.24" cy="54.85" r=".71"/>
              <circle cx="70.24" cy="57.42" r=".64"/>
              <circle cx="70.24" cy="59.98" r=".57"/>
              <circle cx="70.24" cy="62.54" r=".49"/>
              <circle cx="70.24" cy="65.11" r=".42"/>
              <path d="m69.89,67.67c0-.19.16-.35.35-.35s.35.16.35.35-.16.35-.35.35-.35-.16-.35-.35Z"/>
              <path d="m69.96,70.23c0-.16.13-.28.28-.28s.28.13.28.28-.13.28-.28.28-.28-.13-.28-.28Z"/>
            </g>
            <g>
              <circle cx="72.8" cy="39.48" r="1.01"/>
              <circle cx="72.8" cy="42.04" r=".95"/>
              <circle cx="72.8" cy="44.6" r=".89"/>
              <circle cx="72.8" cy="47.17" r=".82"/>
              <circle cx="72.8" cy="49.73" r=".76"/>
              <circle cx="72.8" cy="52.29" r=".7"/>
              <circle cx="72.8" cy="54.85" r=".64"/>
              <circle cx="72.8" cy="57.42" r=".58"/>
              <circle cx="72.8" cy="59.98" r=".51"/>
              <circle cx="72.8" cy="62.54" r=".45"/>
              <circle cx="72.8" cy="65.11" r=".39"/>
              <circle cx="72.8" cy="67.67" r=".33"/>
              <circle cx="72.8" cy="70.23" r=".26"/>
            </g>
            <g>
              <circle cx="75.37" cy="39.48" r=".89"/>
              <circle cx="75.37" cy="42.04" r=".83"/>
              <circle cx="75.37" cy="44.6" r=".78"/>
              <circle cx="75.37" cy="47.17" r=".73"/>
              <circle cx="75.37" cy="49.73" r=".67"/>
              <circle cx="75.37" cy="52.29" r=".62"/>
              <circle cx="75.37" cy="54.85" r=".57"/>
              <circle cx="75.37" cy="57.42" r=".51"/>
              <circle cx="75.37" cy="59.98" r=".46"/>
              <circle cx="75.37" cy="62.54" r=".41"/>
              <path d="m75.01,65.11c0-.19.16-.35.35-.35s.35.16.35.35-.16.35-.35.35-.35-.16-.35-.35Z"/>
              <circle cx="75.37" cy="67.67" r=".3"/>
            </g>
            <g>
              <circle cx="77.93" cy="39.48" r=".76"/>
              <circle cx="77.93" cy="42.04" r=".72"/>
              <circle cx="77.93" cy="44.6" r=".67"/>
              <circle cx="77.93" cy="47.17" r=".63"/>
              <circle cx="77.93" cy="49.73" r=".58"/>
              <circle cx="77.93" cy="52.29" r=".54"/>
              <circle cx="77.93" cy="54.85" r=".49"/>
              <circle cx="77.93" cy="57.42" r=".45"/>
              <circle cx="77.93" cy="59.98" r=".41"/>
              <circle cx="77.93" cy="62.54" r=".36"/>
              <path d="m77.61,65.11c0-.17.14-.32.32-.32s.32.14.32.32-.14.32-.32.32-.32-.14-.32-.32Z"/>
              <path d="m77.66,67.67c0-.15.12-.27.27-.27s.27.12.27.27-.12.27-.27.27-.27-.12-.27-.27Z"/>
            </g>
            <g>
              <circle cx="80.49" cy="39.48" r=".64"/>
              <circle cx="80.49" cy="42.04" r=".6"/>
              <circle cx="80.49" cy="44.6" r=".57"/>
              <circle cx="80.49" cy="47.17" r=".53"/>
              <circle cx="80.49" cy="49.73" r=".49"/>
              <circle cx="80.49" cy="52.29" r=".46"/>
              <circle cx="80.49" cy="54.85" r=".42"/>
              <circle cx="80.49" cy="57.42" r=".39"/>
              <circle cx="80.49" cy="59.98" r=".35"/>
              <path d="m80.18,62.54c0-.17.14-.32.32-.32s.32.14.32.32-.14.32-.32.32-.32-.14-.32-.32Z"/>
              <path d="m80.21,65.11c0-.16.13-.28.28-.28s.28.13.28.28-.13.28-.28.28-.28-.13-.28-.28Z"/>
            </g>
            <g>
              <circle cx="83.06" cy="39.48" r=".51"/>
              <circle cx="83.06" cy="42.04" r=".49"/>
              <circle cx="83.06" cy="44.6" r=".46"/>
              <circle cx="83.06" cy="47.17" r=".43"/>
              <circle cx="83.06" cy="49.73" r=".41"/>
              <path d="m82.68,52.29c0-.21.17-.38.38-.38s.38.17.38.38-.17.38-.38.38-.38-.17-.38-.38Z"/>
              <path d="m82.7,54.85c0-.19.16-.35.35-.35s.35.16.35.35-.16.35-.35.35-.35-.16-.35-.35Z"/>
              <circle cx="83.06" cy="57.42" r=".33"/>
              <circle cx="83.06" cy="59.98" r=".3"/>
              <circle cx="83.06" cy="62.54" r=".27"/>
            </g>
            <g>
              <circle cx="85.62" cy="39.48" r=".39"/>
              <path d="m85.25,42.04c0-.2.17-.37.37-.37s.37.17.37.37-.17.37-.37.37-.37-.17-.37-.37Z"/>
              <path d="m85.27,44.6c0-.19.16-.35.35-.35s.35.16.35.35-.16.35-.35.35-.35-.16-.35-.35Z"/>
              <circle cx="85.62" cy="47.17" r=".33"/>
              <path d="m85.3,49.73c0-.17.14-.32.32-.32s.32.14.32.32-.14.32-.32.32-.32-.14-.32-.32Z"/>
              <circle cx="85.62" cy="52.29" r=".3"/>
              <path d="m85.34,54.85c0-.16.13-.28.28-.28s.28.13.28.28-.13.28-.28.28-.28-.13-.28-.28Z"/>
              <circle cx="85.62" cy="57.42" r=".26"/>
            </g>
            <g>
              <path d="m88.18,39.74c-.15,0-.26-.12-.26-.26s.12-.26.26-.26.26.12.26.26-.12.26-.26.26Z"/>
              <path d="m87.93,42.04c0-.14.11-.25.25-.25s.25.11.25.25-.11.25-.25.25-.25-.11-.25-.25Z"/>
              <path d="m87.94,44.6c0-.14.11-.25.25-.25s.25.11.25.25-.11.25-.25.25-.25-.11-.25-.25Z"/>
              <circle cx="88.18" cy="47.17" r=".24"/>
              <path d="m87.95,49.73c0-.13.1-.23.23-.23s.23.1.23.23-.1.23-.23.23-.23-.1-.23-.23Z"/>
              <path d="m87.96,52.29c0-.12.1-.22.22-.22s.22.1.22.22-.1.22-.22.22-.22-.1-.22-.22Z"/>
            </g>
          </g>
        </g>
      </g>
      <path class="cls-2" d="m51.89,60.08l-3.87,14.34,6.78-1.66-2.91,10.49,10.54-17.39-7.36,1.1,7.89-12.45s2.28-23.57,1.45-23.64c-.83-.07-34.9,10.5-34.9,10.5l15.27,13.14,7.11,5.57Z"/>
      <g>
        <path class="cls-1" d="m84.19,29.23c-1.64-1.64-3.72-2.56-5.86-2.76-.55-1.9-1.57-3.69-3.07-5.19-4.73-4.73-12.4-4.73-17.13,0-.23.23-.45.47-.66.72-1.58-1.99-4.02-3.27-6.76-3.27-3.66,0-6.79,2.28-8.04,5.5-3.64-1.17-7.78-.31-10.67,2.57-1.41,1.41-2.33,3.12-2.78,4.92-.62-.3-1.32-.47-2.05-.47-2.62,0-4.74,2.12-4.74,4.74,0,1.03.33,1.98.89,2.76-3.91,1.54-6.67,5.34-6.67,9.79,0,5.43,4.11,9.9,9.39,10.46.18.88.61,1.72,1.29,2.4,1.85,1.85,4.85,1.85,6.7,0,.28-.28.52-.59.71-.91.37.55.79,1.08,1.28,1.57,3.91,3.91,10.25,3.91,14.16,0,.26-.26.5-.53.73-.81,2.18,1.07,4.9.7,6.71-1.12.48-.48.86-1.03,1.14-1.62,4.48,2.09,9.98,1.28,13.68-2.42,1.6-1.6,2.66-3.54,3.18-5.59,1.61.73,3.58.44,4.91-.89,1.33-1.33,1.62-3.31.88-4.93,1.01-.46,1.95-1.1,2.78-1.93,3.73-3.73,3.73-9.78,0-13.51Z"/>
        <path d="m82.94,42.01c.89-.79,1.55-1.71,2-2.64.22-.46.4-.93.52-1.39.13-.46.21-.91.26-1.35,0-.05.01-.11.02-.16v-.08s.01-.08.01-.08c0-.11.01-.21.02-.32,0-.21,0-.41,0-.61,0-.2-.03-.39-.04-.58-.01-.09-.02-.19-.04-.28,0-.05-.01-.09-.02-.14,0-.04-.02-.09-.02-.13-.12-.71-.31-1.33-.52-1.85-.21-.52-.44-.95-.64-1.3-.2-.35-.39-.62-.52-.83-.06-.11-.13-.19-.17-.26-.04-.07-.07-.13-.09-.17-.03-.09,0-.11.07-.08.04.02.1.05.17.09.03.02.07.05.12.08.02.02.04.03.07.05.02.02.04.04.07.06.05.04.1.09.15.13.05.05.11.1.17.16.06.06.12.12.18.19.03.03.07.07.1.11.03.04.06.08.1.12.27.31.57.72.86,1.23.29.51.57,1.12.79,1.85.21.73.36,1.56.37,2.5,0,.47-.02.95-.1,1.46-.08.5-.19,1.02-.37,1.55-.17.53-.4,1.06-.68,1.59-.29.52-.63,1.04-1.05,1.54-.21.25-.42.49-.66.72-.24.23-.49.46-.76.67-.13.11-.27.21-.42.31-.07.05-.14.1-.22.15l-.09.06s-.06.04-.09.06c-.12.08-.24.15-.37.22-.06.04-.13.07-.19.1l-.09.05-.05.02h-.01s-.01,0,0,.01v.03c.05.07.08.15.11.23.03.08.06.15.08.23.03.08.05.16.07.23,0,.02.01.04.02.06v.06s.02.06.02.06l.02.08c.08.43.09.87.05,1.31-.04.45-.15.89-.33,1.32-.18.43-.42.84-.73,1.21-.61.74-1.48,1.33-2.48,1.59-.06.01-.13.03-.19.04-.06.01-.13.03-.19.04-.06.01-.13.02-.19.03-.06.01-.13.02-.19.02-.07,0-.13.01-.2.02-.03,0-.07,0-.1,0h-.1c-.13,0-.27,0-.39,0-.06,0-.13,0-.19-.01h-.02s-.02,0-.02,0h-.03s-.06-.01-.06-.01l-.12-.02-.12-.02c-.08-.01-.15-.04-.23-.06-.08-.02-.15-.05-.22-.08h-.04s0-.02,0-.02c0,0,0,0,0,0v.02s-.02.08-.02.08c-.01.05-.02.1-.04.16-.03.1-.05.21-.08.31-.03.1-.06.2-.1.3l-.03.08-.04.12c-.03.08-.06.16-.09.24-.25.63-.56,1.26-.93,1.86-.18.3-.38.6-.59.89-.21.29-.44.58-.68.85-.48.55-1.01,1.07-1.6,1.55-.59.48-1.23.91-1.91,1.28-.17.1-.35.18-.52.27-.09.05-.18.08-.27.13-.09.04-.18.08-.27.12-.36.15-.74.3-1.12.42-.38.13-.77.23-1.17.32-.4.09-.8.16-1.21.21-.41.06-.83.08-1.24.1-.1,0-.21,0-.31,0h-.16s-.16,0-.16,0c-.11,0-.21,0-.32,0-.11,0-.21-.01-.32-.02-.19,0-.38-.03-.57-.05-.19-.02-.38-.05-.57-.08l-.29-.05c-.1-.02-.19-.03-.29-.05-.19-.04-.38-.08-.57-.13l-.28-.07-.28-.08-.14-.04-.07-.02h-.04s-.14-.06-.14-.06l-.07-.02-.05-.02-.11-.04s-.07-.03-.11-.04l-.05-.02h-.03s0-.01,0-.01c0,0,0,0,0,0h0c-.07.16-.14.3-.24.43,0,0-.05.06-.08.1-.03.04-.07.09-.1.13-.07.09-.14.17-.22.25-.07.08-.15.16-.23.24l-.24.23-.12.11-.13.11-.26.21s-.09.07-.14.1l-.14.09-.14.09-.07.05s-.05.03-.07.04c-.2.11-.39.23-.59.32-.1.05-.2.1-.31.14l-.32.12c-.85.32-1.76.44-2.67.41h-.09s-.06,0-.09,0l-.17-.02-.17-.02c-.06,0-.11-.01-.17-.02-.22-.04-.45-.07-.67-.13l-.23-.06-.1-.03s-.06-.02-.09-.03l-.09-.04c-.04.05-.08.11-.12.16l-.06.07-.03.04-.04.04-.06.06c-.3.3-.62.6-.96.86-.68.54-1.42,1.01-2.21,1.38-.79.37-1.63.65-2.49.83-.86.17-1.75.25-2.64.22-.89-.03-1.77-.17-2.63-.4l-.08-.02-.08-.02-.16-.05c-.11-.03-.21-.06-.32-.1l-.32-.12-.16-.06-.16-.07-.31-.13c-.1-.04-.2-.1-.3-.14l-.15-.07c-.05-.02-.1-.05-.15-.08l-.3-.16c-.79-.44-1.52-.98-2.18-1.59-.08-.08-.17-.15-.25-.23l-.12-.12v-.02s-.02,0-.02,0c0,0,0,0,0,0,0,0,0,0,0,0h-.01s-.06-.07-.09-.1c-.03-.03-.05-.06-.08-.09l-.04-.05-.02-.02s0,0,0,0h0c-.05.1-.11.18-.18.24h-.01s0,.01,0,.01h0s.01,0,.01,0h0s0,0,0,0h-.01s-.02.03-.02.03l-.18.14c-.12.09-.24.18-.37.25-.25.16-.52.3-.79.43-1.09.49-2.33.65-3.52.45-.59-.1-1.17-.29-1.71-.56-.54-.27-1.04-.62-1.48-1.04-.44-.41-.82-.9-1.11-1.43-.04-.07-.07-.13-.11-.2-.04-.07-.07-.14-.1-.2-.03-.07-.06-.14-.09-.21v-.03s-.02-.01-.02-.01h0s.01.02,0,0h0s0,0,0,0h0s-.02-.07-.03-.1c0,0,0,0-.01,0h-.02s-.03,0-.03,0c0,0-.02,0-.04,0h-.04s-.02,0-.02,0h0s-.03,0-.03,0h-.06s-.25-.07-.25-.07c-.08-.02-.16-.03-.25-.06l-.24-.07c-.65-.18-1.28-.4-1.89-.69-1.22-.56-2.34-1.34-3.31-2.27-.96-.94-1.77-2.03-2.38-3.24-.61-1.2-1-2.51-1.17-3.84-.08-.67-.12-1.34-.09-2.01.03-.67.11-1.34.24-2,.27-1.32.77-2.58,1.46-3.73.69-1.15,1.57-2.18,2.59-3.03.51-.43,1.05-.82,1.63-1.16l.08-.05h.01s.01-.02.01-.02h.01s0-.01,0-.01c0,0,0,0,0,0,0,0-.01-.01-.02-.02h0s0-.02,0-.02h0s0,0,0,0h0s0-.01,0-.01c-.03-.08-.05-.17-.08-.25-.19-.67-.27-1.37-.23-2.07.02-.35.07-.69.14-1.03.02-.08.04-.17.06-.25l.07-.25.08-.25c.03-.08.06-.16.09-.24.13-.32.28-.63.46-.93.18-.3.38-.58.61-.84.45-.53.98-.97,1.57-1.33.29-.18.61-.33.93-.45.32-.13.65-.23.99-.3.34-.07.68-.12,1.02-.14.17,0,.34-.01.51,0,.17,0,.34.02.51.03.08,0,.17.02.25.03h.03s0,0,0,0h0s0,0,0,0h0s0,0,0,0h0s0,0,0,0h0s0,0,0,0h0s0,0,0,0l.02-.04.03-.07.06-.15.07-.15c.04-.1.09-.2.13-.29.37-.78.82-1.51,1.35-2.19.26-.34.54-.66.83-.97.29-.31.6-.6.92-.87.64-.55,1.34-1.03,2.08-1.43,1.48-.8,3.1-1.28,4.74-1.42.41-.04.82-.05,1.23-.04.41,0,.81.03,1.22.08l.3.04c.1.01.2.03.3.05l.15.02.15.03h.04s0,0,0,0c0,0,0,0,0,0h0s0,0,0,0h0s0,0,0,0l.02-.04h0s.05-.09.05-.09l.09-.15c.06-.1.13-.2.19-.3.06-.1.13-.2.2-.29.03-.05.07-.1.1-.14l.11-.14c.58-.75,1.25-1.42,1.99-1.98.74-.56,1.56-1.01,2.41-1.35.85-.34,1.74-.55,2.64-.64.45-.05.89-.07,1.34-.05.11,0,.22,0,.33.01.06,0,.11,0,.17.01h.17c.11.03.22.04.33.05.11.02.22.03.33.05.87.13,1.72.38,2.51.72.79.35,1.53.79,2.19,1.31.08.07.17.13.25.2.08.07.16.14.24.21l.03.02s0,0-.01-.01c0,0,0,0,0,0h0s0,.01,0,.01c0,.01.02.03.03.04.01,0,.02-.02.04-.03h.01s0-.01,0-.01l.06-.05.13-.11c.17-.14.34-.29.52-.43.71-.55,1.46-1.02,2.24-1.41,1.56-.78,3.21-1.23,4.82-1.38,1.61-.15,3.19,0,4.64.37.73.19,1.42.44,2.08.72.08.04.16.07.24.11l.12.06s.08.04.12.06c.16.08.31.16.47.24.3.17.61.34.89.53.84.54,1.58,1.16,2.22,1.8.32.32.62.65.89.98.27.33.52.67.75,1.01.12.17.22.34.32.51.05.09.1.17.15.26.02.04.05.08.07.13.02.04.05.09.07.13.19.34.34.68.49,1.01.07.17.14.33.2.49.03.08.06.16.09.24.01.04.03.08.04.12l.02.05s0,.01,0,.02c.02.08.04.16.05.25.04,0,.07.02.11.03.04.01.07.02.11.03h.01s0,0,0,0h0s.02,0,.04,0h.05c.07.03.14.05.21.06.14.04.27.08.4.11.52.16.99.35,1.41.54.1.05.21.1.3.15.1.05.19.1.28.15.05.03.09.05.14.08.04.03.09.05.13.08.09.05.17.1.25.15.08.05.16.11.23.16.07.05.15.1.22.15.07.05.13.1.2.15.06.05.13.1.18.15.11.1.22.19.32.28.1.09.18.17.26.25.08.08.15.15.21.22.06.07.12.13.16.19.18.23.25.36.21.38-.09.06-.56-.34-1.55-.93-.5-.29-1.14-.61-1.93-.89-.4-.13-.83-.26-1.31-.36-.12-.02-.24-.05-.36-.07-.06,0-.12-.02-.19-.03-.03,0-.06,0-.09-.01-.03,0-.06,0-.08-.01-.12-.01-.23-.02-.35-.04-.12,0-.25-.02-.37-.02-.06-.14-.1-.29-.16-.44-.03-.08-.06-.15-.09-.23-.03-.08-.07-.16-.1-.24-.15-.33-.31-.68-.5-1.02-.19-.34-.4-.69-.63-1.03-.24-.34-.5-.68-.78-1.02-.29-.34-.59-.67-.93-.98-.08-.08-.17-.16-.26-.23-.09-.08-.18-.16-.27-.23-.09-.07-.19-.15-.28-.22-.05-.04-.09-.08-.14-.11-.05-.04-.1-.07-.15-.11-.1-.07-.2-.14-.3-.22l-.08-.05-.08-.05c-.05-.03-.1-.07-.16-.1-.11-.07-.21-.14-.32-.2-.11-.06-.22-.13-.33-.19-.06-.03-.11-.07-.17-.09-.06-.03-.11-.06-.17-.09-.12-.06-.23-.12-.35-.18-.24-.11-.48-.22-.73-.32-.49-.2-1.02-.37-1.55-.51-.14-.03-.27-.06-.41-.1-.14-.03-.28-.05-.42-.08-.14-.03-.28-.04-.42-.07-.14-.02-.28-.04-.43-.05-.58-.06-1.17-.07-1.77-.05-.3,0-.6.04-.91.07-.15.02-.3.04-.46.07-.08,0-.15.03-.23.04-.08.01-.15.03-.23.04-.61.13-1.22.3-1.82.53-.6.23-1.19.52-1.76.85-.57.34-1.12.73-1.65,1.17-.13.11-.26.23-.38.35l-.02.02h-.01s-.02.03-.02.03l-.07.07-.13.13c-.09.09-.18.18-.27.27-.04.05-.09.09-.13.14l-.13.15c-.09.1-.17.2-.26.3-.09.1-.17.2-.26.3l-.13.15-.06.08-.03.04-.02.02s-.01.02-.02.01c-.12-.13-.23-.27-.35-.41-.06-.07-.12-.14-.18-.2-.06-.07-.12-.14-.19-.21-.06-.07-.12-.14-.19-.21-.06-.06-.13-.13-.19-.19-.07-.07-.13-.13-.2-.2-.03-.03-.06-.07-.1-.1l-.05-.05-.06-.05c-.37-.31-.77-.59-1.2-.83-.43-.24-.88-.45-1.35-.61-.47-.16-.96-.27-1.47-.34-1-.14-2.06-.08-3.07.18-1.01.27-1.99.74-2.83,1.41-.55.43-1.04.94-1.46,1.51l-.08.11s-.05.07-.07.11c-.05.07-.1.15-.15.22-.05.08-.1.15-.14.23l-.07.12-.03.06-.05.1-.1.2c-.03.07-.07.13-.1.21-.06.15-.13.3-.19.45-.06.15-.13.31-.19.46-.06.15-.12.3-.18.46-.53-.15-1.08-.32-1.63-.45-.07-.02-.14-.03-.21-.05l-.17-.03c-.08-.02-.16-.03-.24-.04-.16-.03-.32-.04-.48-.06-.32-.03-.64-.04-.96-.04-.32,0-.64.02-.96.05-1.28.14-2.54.54-3.67,1.18-1.13.64-2.13,1.52-2.91,2.57-.39.52-.73,1.09-1,1.68-.07.15-.13.3-.19.45l-.06.16c-.03.07-.05.15-.08.23-.05.15-.1.3-.15.46-.09.32-.17.64-.26.96l-.12.48-.06.24-.02.06v.03s-.01.02-.02.02l-.04.09c-.43-.19-.9-.4-1.35-.6-.11-.05-.22-.09-.34-.14-.05-.02-.11-.04-.16-.05-.03,0-.05-.02-.08-.03l-.08-.02c-.05-.01-.11-.03-.16-.04h-.08s-.05-.02-.05-.02c-.05,0-.09-.01-.14-.02-.09,0-.19-.01-.28-.01-.1,0-.19,0-.29,0-.19.01-.38.04-.56.08-.18.04-.36.1-.54.17-.17.07-.34.16-.5.26-.32.2-.61.45-.85.74-.48.58-.76,1.31-.79,2.06-.01.38.03.75.14,1.11l.04.13.06.16c.02.05.04.11.07.16l.09.16.04.08.02.04s.02.03.03.04l.22.33c.3.44.61.9.9,1.32l-.07.04-.04.02s-.03.01-.04.02l-.19.08-.37.16-.76.32-.38.17-.19.08-.09.04s-.06.03-.09.05l-.35.18-.17.09s-.02,0-.02.01h-.01s-.02.02-.02.02l-.04.03c-.44.26-.85.56-1.23.9-.77.66-1.43,1.46-1.95,2.33-.51.88-.87,1.84-1.07,2.83-.1.5-.15,1-.16,1.51,0,.13,0,.25,0,.38v.38s.04.38.04.38c.01.13.03.25.05.38.14,1,.45,1.97.91,2.87.46.89,1.08,1.71,1.8,2.4.73.69,1.56,1.27,2.47,1.68.45.21.92.38,1.4.5l.18.05c.06.01.12.03.18.04l.18.04h.05s.01.01.01.01h.03s.05.01.05.01l.2.03.41.06.2.03.21.03.42.05.21.03c.07,0,.14.02.21.03l.16.69.08.35.04.17v.04s.02.04.02.04l.03.08.05.16c.02.05.05.12.05.13.02.04.03.07.05.11.02.04.03.07.05.11.02.04.04.07.06.1.15.27.35.52.58.74.46.44,1.03.72,1.65.82.61.1,1.26.02,1.81-.23.14-.06.28-.13.4-.22l.05-.03.05-.03s.06-.04.09-.07l.09-.07h.01s0-.01,0-.01h0s0,0,0,0l.04-.03s0,0,.01,0h0s.02-.02.02-.02l.03-.03.12-.12.12-.12.03-.03s.02-.02.03-.04l.06-.08.22-.31c.14-.23.29-.47.44-.72.3-.49.6-.97.89-1.46l.17.25.18.26.36.54c.25.36.49.73.74,1.09.24.36.49.68.77.97l.1.11.07.07.09.09.19.18c.24.24.51.45.78.65.07.05.14.1.21.14.07.05.14.1.21.14l.21.13s.07.05.11.07l.11.06c1.17.66,2.49,1.02,3.82,1.07.66.02,1.32-.03,1.97-.16.64-.13,1.27-.34,1.86-.61.59-.27,1.14-.62,1.65-1.02.25-.2.49-.41.72-.64.02-.02.2-.2.32-.34.13-.14.25-.29.38-.45.25-.31.49-.61.74-.92.18.08.37.16.55.24l.27.12.28.12c.19.08.37.16.56.23.05.02.09.04.14.05h.02s0,0,0,0c0,0-.02,0,.04,0h.01s.01,0,.01,0h.03s.1.03.1.03l.1.03s.07.01.1.02l.21.04c.07.01.14.02.21.02.07,0,.14.02.21.02.56.03,1.12-.04,1.63-.23l.19-.07.19-.09.09-.04s.06-.03.09-.05l.18-.1s.06-.04.09-.05l.08-.06.09-.06s.06-.04.08-.06l.16-.13s.05-.04.08-.06l.07-.07.15-.14c.05-.05.1-.1.14-.15.05-.05.09-.1.13-.15.02-.03.04-.05.06-.08l.03-.04h0s0-.01,0-.01l.02-.03.04-.06.08-.11.08-.12c.05-.08.1-.16.15-.25.09-.17.18-.36.27-.54.18-.36.35-.72.53-1.08.45.2.9.4,1.35.6l.34.15.08.04.04.02h.04s.15.07.15.07c.2.08.4.15.59.22.39.13.79.24,1.2.32.81.16,1.62.24,2.43.21,1.62-.04,3.19-.46,4.56-1.18.35-.18.67-.38.99-.59.08-.05.16-.11.24-.16.08-.05.15-.11.23-.17.16-.11.3-.24.45-.35.07-.06.14-.12.21-.19l.11-.09.1-.1c.07-.07.14-.13.21-.19.07-.07.13-.13.2-.2.26-.27.51-.55.73-.84.23-.29.44-.59.63-.9.19-.31.37-.63.53-.95.08-.16.15-.33.22-.49l.05-.12s.02-.04.02-.06l.04-.09c.03-.09.07-.18.1-.27.03-.1.07-.19.09-.29.23-.77.44-1.59.66-2.33.47.19.94.39,1.41.58.12.05.24.1.35.14.06.03.12.04.17.05l.17.05c.11.03.23.06.34.09h.01s0,0,0,0h0s.02,0,.02,0h.03s.07.01.07.01c.04,0,.09.01.13.01h.11s.08,0,.11,0h.11c.08,0,.15-.02.22-.03h.06s.04-.01.05-.02l.11-.02c.58-.12,1.1-.43,1.5-.86.39-.42.64-.95.73-1.51.04-.28.05-.56.01-.83l-.02-.16c-.02-.1-.04-.19-.08-.28-.07-.19-.14-.38-.21-.57-.15-.37-.3-.75-.45-1.12.03-.01.05-.03.08-.04l.08-.04.17-.08c.11-.05.23-.11.34-.16.23-.11.45-.21.68-.32l.17-.08.16-.08c.11-.06.22-.11.31-.17l.15-.08.07-.04.03-.02s.09-.06.14-.08c.36-.23.69-.48,1.01-.76Z"/>
      </g>
      <g>
        <g>
          <path class="cls-4" d="m72.38,23.49l16.35-14.32-16.35,14.32Z"/>
          <path d="m88.74,9.17c-.46-.52-1.14-.67-1.52-.34l-14.83,14.66,16.49-12.77c.38-.33.32-1.03-.14-1.55Z"/>
        </g>
        <g>
          <path class="cls-4" d="m68.49,20.87l6.31-15.3-6.31,15.3Z"/>
          <path d="m74.81,5.58c-.64-.27-1.28-.19-1.43.17l-4.88,15.13,7.21-14.17c.15-.36-.25-.86-.9-1.13Z"/>
        </g>
        <g>
          <path class="cls-4" d="m72.21,20L85.53.26l-13.32,19.74Z"/>
          <path d="m85.53.26c-.58-.39-1.3-.33-1.61.13l-11.71,19.61L86.01,1.8c.31-.46.1-1.15-.48-1.54Z"/>
        </g>
      </g>
      <g>
        <g>
          <path class="cls-4" d="m21.98,51.46l-13.6,3.77,13.6-3.77Z"/>
          <path d="m8.38,55.24c.19.67.59,1.14.91,1.05l12.68-4.83-13.36,2.4c-.32.09-.43.7-.24,1.37Z"/>
        </g>
        <g>
          <path class="cls-4" d="m22.69,45.53l-17.27-5.1,17.27,5.1Z"/>
          <path d="m5.41,40.43c-.2.67-.03,1.3.38,1.42l16.9,3.67-16.18-6.09c-.4-.12-.89.32-1.09.99Z"/>
        </g>
        <g>
          <path class="cls-4" d="m21.08,48.63L0,48.47l21.08.16Z"/>
          <path d="m0,48.47c0,.69.39,1.26.88,1.26l20.2-1.11-20.18-1.41c-.49,0-.9.56-.9,1.25Z"/>
        </g>
      </g>
      <g>
        <path class="cls-4" d="m78.19,47.23l18.02,6.91-18.02-6.91Z"/>
        <path d="m96.21,54.14c.25-.65.11-1.31-.31-1.47l-17.71-5.44,16.81,7.79c.42.16.96-.23,1.21-.88Z"/>
      </g>
      <g>
        <path class="cls-4" d="m72.74,51.46l14.3,12.96-14.3-12.96Z"/>
        <path d="m87.03,64.43c.47-.51.57-1.18.24-1.48l-14.53-11.48,12.85,13.35c.33.3.98.13,1.45-.38Z"/>
      </g>
    </g>
    <g>
      <path class="cls-3" d="m58.17,38.42c.02-.58.05-1.17.07-1.75-1.08.5-2.06,1.11-2.96,1.84-1.22.99-1.91,1.92-2.1,2.79-.03.17-.04.29-.03.38.04,1.03.66,1.76,1.86,2.22.81.3,1.83.46,3.07.48,0-.51.01-1.03.02-1.54-.77.02-1.46-.07-2.07-.27-.87-.3-1.23-.79-1.07-1.49.13-.55.57-1.1,1.35-1.66.29-.21.59-.39.9-.56.31-.16.64-.31.98-.44Z"/>
      <path class="cls-3" d="m64.38,36.91c-.95-.05-1.86.3-2.71,1.06-.85.75-1.41,1.69-1.68,2.8-.28,1.1-.2,2.04.24,2.8.44.77,1.12,1.17,2.03,1.21.92.04,1.79-.31,2.63-1.06.82-.73,1.4-1.63,1.72-2.73.33-1.09.28-2.02-.15-2.81-.43-.79-1.13-1.21-2.08-1.27Zm.76,3.88c-.18.65-.51,1.2-.96,1.66-.48.49-.99.72-1.54.69-.54-.03-.92-.26-1.14-.71-.22-.45-.25-.99-.08-1.64.17-.65.49-1.21.97-1.66.49-.5,1.02-.73,1.57-.7.54.03.92.28,1.14.74.21.45.22.99.04,1.62Z"/>
      <path class="cls-3" d="m30.62,46.06c.48,0,.95-.01,1.43-.02.35-2.69.73-5.39,1.14-8.08-.51.01-1.02.02-1.53.04-.37,2.69-.72,5.38-1.03,8.06Z"/>
      <path class="cls-3" d="m25.5,44.07c-.18-1.77-.37-3.54-.55-5.31-.56.02-1.12.04-1.68.06-.47,2.71-.9,5.43-1.29,8.14.5-.01.99-.02,1.49-.02.31-1.93.64-3.85.98-5.78.12,1.85.25,3.69.38,5.54.31-.05.63-.09.94-.14.45-2.18.92-4.36,1.42-6.54-.04,2.21-.07,4.42-.09,6.63.53-.06,1.07-.11,1.6-.16.09-2.69.2-5.38.33-8.07-.78.05-1.55.1-2.33.15-.42,1.84-.81,3.67-1.19,5.51Z"/>
      <path class="cls-3" d="m17.34,40.41c-.93.19-1.72.77-2.35,1.71-.63.94-.93,1.99-.91,3.14,0,1.14.33,2.02.95,2.65.62.63,1.38.84,2.27.65.9-.19,1.65-.76,2.27-1.7.61-.91.93-1.94.97-3.08.04-1.14-.25-2.03-.86-2.68-.62-.65-1.4-.89-2.34-.69Zm1.73,3.56c-.01.67-.18,1.29-.51,1.85-.34.59-.78.95-1.31,1.06-.53.11-.96-.02-1.28-.39-.33-.38-.49-.9-.49-1.56,0-.67.17-1.29.51-1.86.35-.61.8-.97,1.34-1.08.53-.11.96.03,1.29.43.32.38.47.9.45,1.56Z"/>
      <path class="cls-3" d="m72.64,44.49c-.55-.06-.92-.19-1.13-.4-.23-.24-.32-.66-.26-1.26,1.56-.45,2.51-1.15,2.85-2.13.35-1.02-.1-1.87-1.38-2.54-.83-.43-1.88-.74-3.12-.92-.93,2.58-1.83,5.17-2.7,7.77.46.04.93.09,1.39.13.21-.62.43-1.24.64-1.86.25-.02.48-.05.7-.08-.03.7.04,1.19.2,1.48.28.55,1.14.93,2.58,1.16.22-.45.43-.9.65-1.34-.08,0-.15,0-.22,0-.07,0-.13,0-.19-.01Zm-3.41-2.73c.35-1.01.7-2.01,1.06-3.02.58.09,1.05.23,1.4.44.54.32.72.74.55,1.26-.17.52-.63.88-1.38,1.1-.48.15-1.02.22-1.63.22Z"/>
      <path class="cls-3" d="m44.47,38.65c.65-.13,1.34-.22,2.07-.26.13-.6.26-1.2.39-1.8-.63.07-1.21.17-1.75.3-.54.13-1.04.28-1.5.46-1.49.58-2.29,1.35-2.43,2.29-.05.32-.03.61.03.87.13.53.5.85,1.11.98.23.04.79.06,1.67.05.62,0,.98.1,1.07.31.07.14.1.28.08.42-.07.43-.4.75-1,.96-.29.11-.73.21-1.3.3-.67.1-1.1.16-1.29.18-.11,0-.25.01-.42.01-.03.52-.05,1.03-.08,1.55,1.13-.13,2.18-.37,3.16-.74,1.5-.57,2.34-1.31,2.51-2.26.05-.31.05-.59,0-.84-.12-.5-.49-.81-1.12-.92-.12-.02-.69-.05-1.71-.05-.64,0-1.01-.14-1.12-.39-.08-.16-.11-.31-.08-.46.07-.41.64-.74,1.72-.98Z"/>
      <path class="cls-3" d="m38.97,39.03c-.04-.58-.08-1.16-.11-1.75-1.02.61-1.93,1.32-2.75,2.14-1.11,1.11-1.7,2.11-1.79,3,0,.17,0,.3,0,.38.15,1.02.84,1.69,2.08,2.01.83.21,1.87.26,3.1.15-.05-.51-.1-1.02-.14-1.53-.76.1-1.46.09-2.09-.05-.89-.2-1.3-.65-1.22-1.37.07-.56.45-1.16,1.16-1.8.26-.24.54-.45.83-.65.29-.2.6-.38.92-.54Z"/>
      <path class="cls-3" d="m83.69,43.95c.83.05,1.66.11,2.5.18.15-.46.31-.91.46-1.37-.71-.05-1.43-.1-2.14-.14.16-.54.32-1.07.48-1.61,1.15.06,2.3.13,3.45.21.19-.53.37-1.05.56-1.58-1.7-.13-3.39-.23-5.09-.31-.8,2.51-1.6,5.03-2.37,7.55,1.59.06,3.17.14,4.77.24.17-.49.35-.98.52-1.47-1.2-.08-2.4-.14-3.6-.19.16-.5.31-1,.47-1.51Z"/>
      <path class="cls-3" d="m11.73,43.46c-.13-.57-.25-1.14-.38-1.71-.91.76-1.71,1.6-2.4,2.54-.93,1.27-1.36,2.35-1.32,3.24.02.17.04.29.06.38.3.99,1.09,1.54,2.37,1.67.86.08,1.89-.03,3.1-.32-.12-.5-.25-1-.38-1.49-.74.22-1.43.31-2.08.27-.92-.06-1.39-.45-1.42-1.16-.02-.56.27-1.21.88-1.95.23-.27.47-.53.73-.77.26-.24.54-.46.83-.68Z"/>
      <path class="cls-3" d="m94.07,41.62c-.78-.53-1.79-.96-3.02-1.29-1.23,2.45-2.44,4.92-3.61,7.39.46.1.92.2,1.37.3.29-.59.57-1.18.86-1.77.25.01.48.01.71,0-.11.69-.1,1.18.02,1.49.22.58,1.03,1.06,2.44,1.46.27-.42.54-.84.81-1.26-.08,0-.15-.02-.22-.03-.07,0-.13-.02-.19-.03-.54-.12-.9-.3-1.08-.53-.2-.26-.24-.69-.11-1.28,1.61-.26,2.65-.84,3.1-1.78.47-.97.12-1.87-1.09-2.69Zm-.75,2.2c-.23.49-.73.8-1.5.93-.5.09-1.05.1-1.66.02.47-.96.94-1.91,1.41-2.87.57.16,1.02.36,1.35.6.5.38.63.82.4,1.32Z"/>
      <path class="cls-3" d="m78.71,43.66c-.05-1.76-.1-3.53-.17-5.3-.61-.06-1.22-.12-1.83-.18-.78,2.53-1.54,5.07-2.28,7.6.51.07,1.01.13,1.52.21.57-1.88,1.15-3.76,1.75-5.64.1,1.93.19,3.86.26,5.79.57.02,1.14.04,1.71.07.74-2.51,1.49-5.01,2.26-7.51-.56-.09-1.13-.18-1.69-.26-.52,1.74-1.03,3.48-1.53,5.22Z"/>
      <path d="m11.25,46.04c.2-.24.45-.5.75-.76.3-.26.64-.53,1.04-.81-.19-.89-.38-1.77-.57-2.66-.27-.26-.55-.53-.82-.79,0-.03,0-.05,0-.08-.65.53-1.22,1.05-1.72,1.57-.5.52-.94,1.03-1.3,1.52,0,0,0,0,.01,0-.5.68-.86,1.33-1.09,1.93-.23.6-.33,1.16-.31,1.67,0,.12.02.23.03.32,0,.09.03.17.05.23,0,0,0,0,.01,0,.09.31.22.57.4.8.17.23.38.42.62.59.18.17.37.34.55.51.23.22.51.4.83.53.32.13.69.21,1.11.26.89.09,2.11-.06,3.66-.42-.2-.81-.39-1.62-.59-2.43-.26-.27-.53-.53-.79-.8,0-.02-.02-.04-.03-.07-.03.01-.08.03-.14.04-.06.02-.12.04-.19.05-.07.02-.13.04-.19.05-.06.02-.1.03-.13.04-.3.07-.58.12-.85.15-.27.03-.53.04-.77.02-.05,0-.1,0-.15-.01-.04,0-.09-.01-.14-.02,0-.19.07-.41.2-.64.12-.23.3-.5.53-.79Zm-1.96.81c.03.72.51,1.1,1.42,1.16.65.04,1.34-.05,2.08-.27.13.5.25,1,.38,1.49-1.21.29-2.24.4-3.1.32-1.28-.13-2.07-.68-2.37-1.67-.03-.08-.05-.21-.06-.38-.04-.89.39-1.97,1.32-3.24.68-.93,1.48-1.78,2.4-2.54.13.57.25,1.14.38,1.71-.3.21-.57.44-.83.68-.26.24-.5.49-.73.77-.61.74-.89,1.39-.88,1.95Z"/>
      <path d="m20.77,41.56c-.18-.19-.36-.38-.54-.57-.04-.05-.09-.11-.13-.16-.04-.05-.08-.1-.13-.16-.68-.74-1.56-1-2.63-.79-.53.11-1.02.33-1.46.65-.44.32-.84.76-1.19,1.3-.37.54-.63,1.1-.8,1.68-.17.58-.24,1.19-.24,1.83,0,.64.1,1.21.29,1.7.19.49.45.92.79,1.28.04.05.09.09.14.14.05.04.1.08.15.12.18.18.37.37.55.55.35.35.73.59,1.15.71.42.12.87.13,1.38.03.99-.21,1.82-.84,2.52-1.89.68-1.01,1.05-2.15,1.1-3.42.03-1.26-.28-2.26-.95-3Zm-.24,2.21c-.03,1.14-.36,2.17-.97,3.08-.62.94-1.37,1.5-2.27,1.7-.89.19-1.65-.02-2.27-.65-.62-.63-.95-1.51-.95-2.65-.02-1.14.28-2.19.91-3.14.63-.95,1.42-1.52,2.35-1.71.94-.19,1.72.04,2.34.69.62.65.9,1.54.86,2.68Z"/>
      <path d="m17.33,41.98c-.54.11-.99.47-1.34,1.08-.34.56-.51,1.18-.51,1.86,0,.67.17,1.19.49,1.56.33.38.75.51,1.28.39.53-.11.97-.47,1.31-1.06.32-.56.49-1.17.51-1.85.02-.66-.13-1.18-.45-1.56-.33-.39-.76-.54-1.29-.43Zm1.33,2.07c0,.56-.14,1.06-.41,1.51-.26.45-.59.71-.99.8-.17.04-.34.04-.49.02-.06-.21-.08-.44-.08-.71,0-.57.14-1.08.41-1.53.14-.24.29-.43.47-.57.18-.14.37-.23.57-.27.15-.03.29-.03.42,0,.03.11.06.22.07.35.01.12.02.26.02.4Z"/>
      <path d="m29.45,37.94s0-.05,0-.07c-1.03.06-2.06.12-3.09.2-.09.4-.18.8-.27,1.2,0-.04,0-.08,0-.12-.25-.28-.5-.56-.76-.84,0-.03,0-.06,0-.08-.8.02-1.59.05-2.39.08-.53,3.06-1.01,6.12-1.44,9.18.02,0,.03,0,.05,0,.25.27.5.55.75.82.74-.01,1.48-.02,2.22-.02.05-.28.09-.57.14-.85.19.22.38.43.56.65.53-.08,1.06-.15,1.59-.22.03-.16.06-.33.1-.49.18.22.36.44.54.66.78-.08,1.55-.16,2.33-.23.11-3,.25-6,.41-9.01-.25-.29-.5-.58-.75-.86Zm-.76,8.53c-.53.05-1.07.11-1.6.16.02-2.21.05-4.42.09-6.63-.5,2.18-.97,4.36-1.42,6.54-.31.05-.63.09-.94.14-.13-1.85-.26-3.69-.38-5.54-.35,1.93-.67,3.85-.98,5.78-.5,0-.99.01-1.49.02.39-2.71.82-5.43,1.29-8.14.56-.02,1.12-.04,1.68-.06.18,1.77.36,3.54.55,5.31.38-1.84.78-3.67,1.19-5.51.78-.06,1.55-.11,2.33-.15-.13,2.69-.24,5.38-.33,8.07Z"/>
      <path d="m33.67,37.5s0-.04.01-.06c-.8.01-1.59.03-2.39.06-.41,3.03-.78,6.06-1.12,9.09.02,0,.04,0,.06,0,.24.29.48.58.71.87.72,0,1.43-.01,2.15-.01.4-3.02.84-6.03,1.31-9.04-.24-.3-.49-.6-.73-.89Zm-1.62,8.54c-.47,0-.95.01-1.43.02.32-2.69.66-5.38,1.03-8.06.51-.01,1.02-.03,1.53-.04-.41,2.69-.79,5.39-1.14,8.08Z"/>
      <path d="m38.11,41.51c.24-.21.52-.42.86-.63.33-.21.71-.43,1.14-.64-.05-.9-.11-1.81-.16-2.71-.23-.3-.46-.6-.69-.9,0-.03,0-.05,0-.08-.72.42-1.36.85-1.94,1.29-.58.43-1.08.87-1.51,1.31,0,0,0,0,.01,0-.59.6-1.05,1.18-1.36,1.74-.31.56-.5,1.09-.56,1.6-.01.12-.02.23-.02.32,0,.09,0,.17.02.23,0,0,0,0,.01,0,.05.32.13.6.27.85.13.25.31.48.52.67.15.2.31.39.46.59.2.26.44.47.74.65.3.18.65.32,1.06.42.87.23,2.09.27,3.67.14-.07-.83-.14-1.66-.21-2.49-.22-.3-.44-.6-.66-.91,0-.02-.01-.05-.02-.07-.03,0-.08.01-.14.02-.06,0-.13.02-.2.02-.07,0-.14.02-.2.02-.06,0-.11.01-.13.02-.3.03-.59.03-.86.02-.27-.01-.52-.05-.76-.1-.05-.01-.1-.02-.14-.04-.04-.01-.09-.03-.13-.04.04-.19.13-.39.29-.6.16-.21.37-.44.64-.7Zm-2.05.5c-.08.71.33,1.16,1.22,1.37.63.14,1.32.15,2.09.05.05.51.1,1.02.14,1.53-1.24.11-2.27.06-3.1-.15-1.24-.33-1.93-.99-2.08-2.01-.01-.08-.02-.21,0-.38.09-.88.68-1.89,1.79-3,.81-.82,1.73-1.53,2.75-2.14.04.58.08,1.16.11,1.75-.32.16-.63.34-.92.54-.29.2-.57.41-.83.65-.71.64-1.09,1.24-1.16,1.8Z"/>
      <path d="m47.5,39.8c.2-.92.4-1.84.61-2.76-.22-.32-.43-.63-.65-.95,0-.02,0-.04.01-.06-1.63.17-2.91.46-3.84.83,0,0,0,0,0,0-.86.33-1.53.74-1.99,1.21-.46.47-.73,1-.81,1.59-.06.38-.05.73.04,1.04,0,0,0,0-.01,0,.08.34.23.62.45.83.18.24.36.48.54.73.12.16.27.3.45.41.18.11.39.19.63.24.05.01.11.02.18.03.08,0,.17.01.27.02-.06,0-.13.02-.2.03-.07.01-.15.02-.23.04-.33.05-.6.09-.8.12-.2.03-.35.05-.45.05-.04,0-.09,0-.14.01-.05,0-.11,0-.19,0-.09,0-.18.01-.28.02-.07,0-.13,0-.19.01-.06,0-.09,0-.1,0-.04.85-.09,1.71-.13,2.56.02,0,.04,0,.05,0,.22.31.45.61.67.92,1.39-.16,2.58-.42,3.57-.79,1.7-.64,2.66-1.53,2.87-2.71.07-.37.07-.72,0-1.04-.05-.2-.12-.37-.21-.51-.17-.24-.34-.49-.51-.73-.1-.25-.26-.45-.47-.59-.21-.15-.47-.25-.79-.32,0,0,0,0,0,0-.02,0-.05-.01-.1-.02-.05,0-.1,0-.16-.01.28-.04.58-.08.9-.11.32-.03.66-.06,1.02-.08Zm-4.68.28c.11.25.49.38,1.12.39,1.02,0,1.59.02,1.71.05.63.11,1,.42,1.12.92.05.25.05.53,0,.84-.16.94-1.01,1.68-2.51,2.26-.97.36-2.02.61-3.16.74.03-.52.05-1.03.08-1.55.17,0,.31,0,.42-.01.2-.01.63-.07,1.29-.18.57-.09,1.01-.19,1.3-.3.59-.21.93-.53,1-.96.02-.14,0-.28-.08-.42-.09-.21-.45-.31-1.07-.31-.89,0-1.44-.01-1.67-.05-.61-.13-.98-.45-1.11-.98-.07-.26-.08-.56-.03-.87.14-.94.94-1.71,2.43-2.29.46-.18.96-.34,1.5-.46.54-.13,1.12-.23,1.75-.3-.13.6-.26,1.2-.39,1.8-.73.04-1.43.13-2.07.26-1.08.24-1.66.57-1.72.98-.03.15,0,.3.08.46Z"/>
      <path d="m57.05,40.8c.26-.18.56-.36.92-.54.36-.18.76-.35,1.21-.52.04-.91.09-1.81.13-2.72-.2-.32-.39-.65-.59-.97,0-.03,0-.05.01-.08-.76.34-1.44.7-2.06,1.07-.62.37-1.17.75-1.64,1.14,0,0,0,0,.01,0-.65.53-1.17,1.06-1.54,1.58-.37.52-.61,1.03-.72,1.54-.02.12-.04.23-.06.32-.02.09-.02.17,0,.23,0,0,0,0,.01,0,.01.32.07.61.18.87.11.26.25.51.44.73.13.21.27.42.4.63.17.28.39.52.67.72.28.21.61.38,1.01.53.84.32,2.05.48,3.64.53.02-.83.04-1.66.05-2.5-.19-.32-.37-.65-.56-.97,0-.02,0-.05-.01-.07-.03,0-.08,0-.14,0-.06,0-.13,0-.2,0-.07,0-.14,0-.2,0-.06,0-.11,0-.14,0-.31,0-.59-.03-.86-.07-.27-.04-.52-.1-.75-.18-.05-.02-.1-.03-.14-.05-.04-.02-.08-.03-.13-.05.06-.19.18-.38.35-.57.18-.19.42-.4.71-.62Zm-2.1.28c-.15.7.21,1.19,1.07,1.49.61.2,1.3.29,2.07.27,0,.51-.01,1.03-.02,1.54-1.24-.03-2.27-.18-3.07-.48-1.2-.46-1.82-1.19-1.86-2.22,0-.09,0-.21.03-.38.19-.87.88-1.8,2.1-2.79.9-.73,1.89-1.34,2.96-1.84-.02.58-.05,1.17-.07,1.75-.34.13-.67.28-.98.44-.31.16-.61.35-.9.56-.77.56-1.22,1.12-1.35,1.66Z"/>
      <path d="m63.96,38.43c-.55-.03-1.08.2-1.57.7-.48.46-.8,1.01-.97,1.66-.17.64-.14,1.19.08,1.64.22.45.6.68,1.14.71.54.03,1.06-.2,1.54-.69.46-.46.78-1.01.96-1.66.18-.63.17-1.17-.04-1.62-.22-.46-.6-.71-1.14-.74Zm.75,2.34c-.14.54-.41.99-.78,1.36-.36.37-.75.54-1.16.52-.18,0-.34-.05-.48-.11,0-.21.03-.45.1-.7.15-.55.42-1,.79-1.37.19-.2.39-.34.6-.43.21-.09.41-.13.62-.12.15,0,.29.04.41.11,0,.11,0,.23-.02.36-.02.12-.05.25-.09.39Z"/>
      <path d="m67.4,38.91c-.12-.23-.25-.46-.37-.69-.03-.06-.06-.13-.08-.19-.02-.06-.05-.12-.09-.19-.47-.89-1.25-1.37-2.34-1.43-.54-.03-1.07.05-1.58.25-.51.2-1.01.52-1.48.95-.49.43-.89.9-1.2,1.42-.31.52-.54,1.09-.7,1.71-.16.62-.21,1.19-.16,1.71.05.52.2,1,.44,1.44.03.06.06.11.1.17.04.05.07.1.11.16.13.22.26.45.39.67.25.43.56.76.93.98.37.23.81.35,1.33.38,1.01.05,1.97-.35,2.92-1.18.61-.54,1.09-1.17,1.46-1.88.21-.61.42-1.23.63-1.84.16-.92.07-1.74-.31-2.45Zm-.8,2.08c-.33,1.1-.9,2-1.72,2.73-.84.75-1.71,1.1-2.63,1.06-.91-.04-1.59-.44-2.03-1.21-.44-.77-.53-1.7-.24-2.8.27-1.11.83-2.05,1.68-2.8.85-.76,1.76-1.11,2.71-1.06.96.05,1.66.48,2.08,1.27.43.78.47,1.72.15,2.81Z"/>
      <path d="m72.23,40.45c.17-.52,0-.94-.55-1.26-.35-.21-.82-.35-1.4-.44-.36,1-.71,2.01-1.06,3.02.61,0,1.15-.07,1.63-.22.75-.22,1.21-.58,1.38-1.1Zm-1.38.63s-.03.02-.05.02c-.01,0-.03,0-.04.01.09-.26.19-.52.28-.78.13.03.25.06.36.1.11.04.21.08.3.12-.13.22-.42.4-.86.53Z"/>
      <path d="m73.71,44.07s.02-.04.03-.06c-.24,0-.45.01-.61.01-.16,0-.28,0-.34-.01-.03,0-.06,0-.1-.01,1.21-.5,1.99-1.23,2.33-2.19.1-.3.15-.6.15-.88,0-.28-.07-.54-.19-.79,0,0,0,0,0-.01-.13-.26-.25-.51-.38-.77-.18-.63-.71-1.19-1.59-1.65-.42-.23-.93-.42-1.54-.59-.61-.17-1.31-.31-2.12-.42-.56,1.55-1.1,3.09-1.63,4.64-.04.23-.08.45-.15.69-.12.41-.29.78-.48,1.14-.26.76-.51,1.52-.76,2.28.01,0,.03,0,.04,0,.18.33.35.67.53,1,.71.07,1.42.14,2.14.22.17-.5.34-.99.52-1.49,0,0,0,0,0,0,0,0,0,0,.01,0,.14.28.27.55.41.83.17.32.51.59,1.02.81.51.22,1.21.41,2.09.56.37-.77.75-1.55,1.13-2.32-.16-.34-.32-.68-.48-1.02Zm-1.32,1.78c-1.43-.23-2.29-.61-2.58-1.16-.16-.29-.23-.78-.2-1.48-.22.04-.45.06-.7.08-.22.62-.43,1.24-.64,1.86-.46-.05-.93-.09-1.39-.13.87-2.6,1.77-5.19,2.7-7.77,1.25.18,2.29.49,3.12.92,1.28.67,1.73,1.52,1.38,2.54-.34.98-1.29,1.68-2.85,2.13-.06.6.03,1.02.26,1.26.2.21.58.34,1.13.4.06,0,.12,0,.19.01.07,0,.14,0,.22,0-.22.45-.44.9-.65,1.34Z"/>
      <path d="m67.71,41.35c-.21.61-.42,1.22-.63,1.84.19-.36.35-.74.48-1.14.07-.24.11-.47.15-.69Z"/>
      <path d="m82.49,38.35s.02-.04.02-.07c-.85-.13-1.71-.26-2.56-.39-.16.53-.31,1.05-.46,1.58,0-.15,0-.31-.01-.46-.16-.34-.32-.68-.47-1.01,0-.03,0-.06,0-.09-.85-.09-1.71-.18-2.56-.26-.87,2.85-1.72,5.71-2.55,8.57.01,0,.03,0,.04,0,.16.34.32.69.47,1.03.75.1,1.5.2,2.25.31.27-.85.53-1.7.8-2.55.02.53.04,1.07.07,1.6.01,0,.02,0,.04,0,.15.35.31.7.46,1.05.78.03,1.57.06,2.35.1.84-2.79,1.7-5.58,2.57-8.37-.15-.35-.31-.69-.46-1.04Zm-2.82,7.86c-.57-.03-1.14-.05-1.71-.07-.07-1.93-.16-3.86-.26-5.79-.59,1.88-1.17,3.76-1.75,5.64-.5-.07-1.01-.14-1.52-.21.74-2.54,1.5-5.07,2.28-7.6.61.06,1.22.12,1.83.18.06,1.77.12,3.53.17,5.3.5-1.74,1.02-3.48,1.53-5.22.56.08,1.13.17,1.69.26-.77,2.5-1.52,5-2.26,7.51Z"/>
      <path d="m86.82,48.1c.31-.66.62-1.32.94-1.97-.12-.29-.23-.58-.35-.86.01-.02.02-.04.03-.07-.13,0-.26-.02-.4-.03.21-.58.42-1.16.62-1.75-.11-.25-.21-.5-.32-.75.6.04,1.19.07,1.79.12.29-.82.59-1.64.88-2.47-.14-.35-.29-.7-.44-1.05,0-.02.01-.05.02-.07-2-.16-3.99-.28-5.98-.38-.91,2.83-1.79,5.67-2.66,8.51.01,0,.02,0,.04,0,.15.35.3.7.44,1.06,1.84.07,3.69.16,5.53.29.02-.05.04-.1.05-.15-.05-.14-.11-.28-.16-.42-.01,0-.03,0-.04,0Zm-.51-.99c-1.59-.1-3.18-.18-4.77-.24.78-2.52,1.57-5.03,2.37-7.55,1.69.08,3.39.18,5.09.31-.19.53-.37,1.05-.56,1.58-1.15-.08-2.3-.15-3.45-.21-.16.54-.32,1.07-.48,1.61.71.04,1.43.09,2.14.14-.15.46-.31.91-.46,1.37-.83-.07-1.66-.13-2.5-.18-.16.5-.31,1-.47,1.51,1.2.05,2.4.12,3.6.19-.18.49-.35.98-.52,1.47Z"/>
      <path d="m92.92,42.51c-.33-.25-.78-.45-1.35-.6-.48.96-.95,1.91-1.41,2.87.61.07,1.16.07,1.66-.02.77-.12,1.27-.43,1.5-.93.23-.5.1-.94-.4-1.32Zm-1.05,1.78s-.04.01-.05.01c-.01,0-.03,0-.04.01.12-.25.25-.5.37-.74.13.04.24.09.35.14.11.05.2.1.29.16-.15.21-.46.34-.92.42Z"/>
      <path d="m96.1,43.85s0,0,0-.01c-.1-.27-.19-.54-.29-.81-.11-.65-.57-1.27-1.4-1.83-.39-.28-.88-.53-1.47-.77-.59-.24-1.28-.46-2.07-.67-1.06,2.11-2.1,4.23-3.12,6.36.03.06.05.13.08.19-.27.74-.54,1.47-.81,2.21.08.21.17.43.25.64.7.15,1.41.31,2.11.47.23-.47.46-.95.69-1.42,0,0,0,0,0,0,0,0,0,0,.01,0,.1.29.21.58.31.87.13.34.44.65.93.93.49.28,1.16.55,2.02.8.46-.73.93-1.45,1.4-2.17-.12-.36-.24-.72-.36-1.07.01-.02.02-.03.04-.05-.24-.02-.45-.04-.61-.06-.16-.02-.28-.04-.34-.05-.03,0-.06-.01-.09-.02,1.27-.35,2.13-.98,2.58-1.9.14-.29.22-.57.25-.85.03-.28,0-.55-.1-.81Zm-.94.46c-.45.93-1.49,1.51-3.1,1.78-.13.59-.09,1.02.11,1.28.18.23.54.4,1.08.53.06.01.12.02.19.03.07,0,.14.02.22.03-.27.42-.54.84-.81,1.26-1.41-.4-2.22-.88-2.44-1.46-.13-.31-.14-.8-.02-1.49-.22,0-.46,0-.71,0-.29.59-.57,1.18-.86,1.77-.46-.1-.91-.2-1.37-.3,1.18-2.47,2.38-4.94,3.61-7.39,1.23.33,2.23.76,3.02,1.29,1.2.82,1.55,1.72,1.09,2.69Z"/>
      <path d="m87.75,46.13c-.31.66-.63,1.32-.94,1.97.01,0,.03,0,.04,0,.06.14.11.28.16.42.27-.74.54-1.48.81-2.21-.03-.06-.05-.13-.08-.19Z"/>
    </g>
  </g>
</svg>